<?xml version="1.0" encoding="UTF-8" standalone="no"?>
<!DOCTYPE svg PUBLIC "-//W3C//DTD SVG 1.1//EN" "http://www.w3.org/Graphics/SVG/1.1/DTD/svg11.dtd">
<svg width="100%" height="100%" viewBox="0 0 329 119" version="1.1" xmlns="http://www.w3.org/2000/svg" xmlns:xlink="http://www.w3.org/1999/xlink" xml:space="preserve" xmlns:serif="http://www.serif.com/" style="fill-rule:evenodd;clip-rule:evenodd;stroke-linejoin:round;stroke-miterlimit:1.5;">
    <g transform="matrix(1,0,0,1,-459.996,-281.475)">
        <g id="Combo">
            <g transform="matrix(1.00093,0,0,1.00897,281.086,80.3518)">
                <g id="Letters">
                    <g transform="matrix(1,0,0,1,20.9188,169.287)">
                        <text x="152.182px" y="130.713px" style="font-family:'Georgia', serif;font-size:144px;">D</text>
                    </g>
                    <g transform="matrix(1,0,0,1,-57.3653,-7.06527)">
                        <text x="334.746px" y="323.138px" style="font-family:'Georgia', serif;font-size:72px;">a</text>
                    </g>
                    <g transform="matrix(1,0,0,1,-163.486,-131.375)">
                        <text x="462.887px" y="397.284px" style="font-family:'Georgia', serif;font-size:72px;">n</text>
                    </g>
                    <g transform="matrix(1,0,0,1,-166.833,110.099)">
                        <text x="509.666px" y="189.783px" style="font-family:'Georgia', serif;font-size:144px;">N</text>
                    </g>
                    <g transform="matrix(1,0,0,1,-158.872,-48.1635)">
                        <text x="609.812px" y="314.127px" style="font-family:'Georgia', serif;font-size:72px;">e</text>
                    </g>
                    <g transform="matrix(1,0,0,1,-157.949,-147.519)">
                        <text x="643.23px" y="464.131px" style="font-family:'Georgia', serif;font-size:64px;">t</text>
                    </g>
                </g>
            </g>
            <g transform="matrix(1,0,0,1,263.236,81.5787)">
                <g id="Letters1" serif:id="Letters" transform="matrix(1,0,0,1,17.0503,-0.212155)">
                    <g transform="matrix(1,0,0,1,20.9188,169.287)">
                        <text x="152.182px" y="130.713px" style="font-family:'Georgia', serif;font-size:144px;fill:rgb(144,26,30);">D</text>
                    </g>
                    <g transform="matrix(1,0,0,1,-57.3653,-7.06527)">
                        <text x="334.746px" y="323.138px" style="font-family:'Georgia', serif;font-size:72px;fill:rgb(85,85,255);">a</text>
                    </g>
                    <g transform="matrix(1,0,0,1,-163.486,-131.375)">
                        <text x="462.887px" y="397.284px" style="font-family:'Georgia', serif;font-size:72px;fill:rgb(1,159,161);">n</text>
                    </g>
                    <g transform="matrix(1,0,0,1,-166.833,110.099)">
                        <text x="509.666px" y="189.783px" style="font-family:'Georgia', serif;font-size:144px;fill:rgb(223,115,0);">N</text>
                    </g>
                    <g transform="matrix(1,0,0,1,-158.872,-48.1635)">
                        <text x="609.812px" y="314.127px" style="font-family:'Georgia', serif;font-size:72px;fill:rgb(56,113,17);">e</text>
                    </g>
                    <g transform="matrix(1,0,0,1,-157.949,-147.519)">
                        <text x="643.23px" y="464.131px" style="font-family:'Georgia', serif;font-size:64px;fill:rgb(102,102,102);">t</text>
                    </g>
                </g>
                <g id="Arrows">
                    <g transform="matrix(-1.12721,-0.275814,-1.65939,7.8206,1192.58,-1367.74)">
                        <g transform="matrix(-0.843362,-0.0297433,-0.178946,0.121556,559.318,220.175)">
                            <path d="M89.392,104.78L95.351,102.772L90.169,99.209C91.367,100.796 90.979,103.582 89.392,104.78Z"/>
                            <path d="M90.895,102.15C87.395,101.454 84.103,100.035 82.043,96.197" style="fill:none;stroke:black;stroke-width:1.5px;"/>
                        </g>
                    </g>
                    <g transform="matrix(-0.591263,2.56282,18.0496,3.5809,-3525.73,-1731.91)">
                        <g transform="matrix(-0.0740234,0.052978,0.373117,0.0122224,445.238,220.821)">
                            <path d="M153.722,78.579L151.696,72.626L148.149,77.819C149.732,76.616 152.519,76.996 153.722,78.579Z"/>
                            <path d="M151.088,77.085C149.476,85.764 145.414,91.522 134.716,97.347" style="fill:none;stroke:black;stroke-width:1.5px;"/>
                        </g>
                    </g>
                    <g transform="matrix(1.32285,0.392946,2.37058,-8.98889,-694.475,2103.19)">
                        <g transform="matrix(0.701028,0.0306452,0.184878,-0.103167,272.904,223.668)">
                            <path d="M276.096,22.608L276.63,28.874L271.297,25.542C273.23,26.008 275.629,24.541 276.096,22.608Z"/>
                            <path d="M262.787,18.318C267.352,19.065 271.267,21.091 274.283,25.035" style="fill:none;stroke:black;stroke-width:1.5px;"/>
                        </g>
                    </g>
                    <g transform="matrix(-1.63823,-1.18457,-9.12746,13.4813,3350.09,-2258.09)">
                        <g transform="matrix(-0.409796,-0.0360078,-0.277452,0.049798,610.251,235.947)">
                            <path d="M294.849,94.499L301.123,94.935L297.708,89.654C298.204,91.58 296.775,94.002 294.849,94.499Z"/>
                            <path d="M297.247,92.648C291.703,88.839 288.209,83.497 287.889,73.76" style="fill:none;stroke:black;stroke-width:1.5px;"/>
                        </g>
                    </g>
                    <g transform="matrix(0.789452,-1.53736,-9.41828,-4.47435,2158.11,1971.2)">
                        <g transform="matrix(0.248415,-0.0853541,-0.522901,-0.0438302,438.987,245.046)">
                            <path d="M169.538,19.043L175.748,20.038L171.226,24.409C172.146,22.645 171.302,19.962 169.538,19.043Z"/>
                            <path d="M159.581,28.7C163.389,23.875 166.256,22.968 171.456,21.388" style="fill:none;stroke:black;stroke-width:1.5px;"/>
                        </g>
                    </g>
                </g>
            </g>
        </g>
    </g>
</svg>
