<?xml version="1.0" encoding="iso-8859-1"?>
<!-- Uploaded to: SVG Repo, www.svgrepo.com, Generator: SVG Repo Mixer Tools -->
<svg fill="#000000" height="800px" width="800px" version="1.1" id="Layer_1" xmlns="http://www.w3.org/2000/svg" xmlns:xlink="http://www.w3.org/1999/xlink" 
	 viewBox="0 0 512 512" xml:space="preserve">
<g>
	<g>
		<g>
			<path d="M320.106,172.772c0.031,0.316,0.09,0.622,0.135,0.933c0.054,0.377,0.098,0.755,0.172,1.13
				c0.071,0.358,0.169,0.705,0.258,1.056c0.081,0.323,0.152,0.648,0.249,0.968c0.104,0.345,0.234,0.678,0.355,1.015
				c0.115,0.319,0.22,0.641,0.35,0.956c0.131,0.315,0.284,0.618,0.43,0.925c0.152,0.323,0.296,0.65,0.466,0.967
				c0.158,0.294,0.337,0.574,0.508,0.86c0.186,0.311,0.362,0.626,0.565,0.93c0.211,0.316,0.447,0.613,0.674,0.917
				c0.19,0.253,0.365,0.513,0.568,0.759c0.892,1.087,1.889,2.085,2.977,2.977c0.246,0.202,0.506,0.378,0.759,0.567
				c0.304,0.228,0.601,0.463,0.918,0.675c0.303,0.203,0.618,0.379,0.929,0.565c0.286,0.171,0.566,0.351,0.861,0.509
				c0.317,0.17,0.644,0.314,0.968,0.466c0.307,0.145,0.609,0.298,0.924,0.429c0.315,0.13,0.637,0.236,0.957,0.35
				c0.337,0.121,0.669,0.25,1.013,0.354c0.32,0.097,0.646,0.168,0.969,0.249c0.351,0.089,0.698,0.187,1.055,0.258
				c0.375,0.074,0.753,0.119,1.13,0.173c0.311,0.044,0.617,0.104,0.932,0.135c0.7,0.069,1.403,0.106,2.105,0.106H448
				c11.782,0,21.333-9.551,21.333-21.333c0-11.782-9.551-21.333-21.333-21.333h-55.163L505.752,36.418
				c8.331-8.331,8.331-21.839,0-30.17c-8.331-8.331-21.839-8.331-30.17,0L362.667,119.163V64c0-11.782-9.551-21.333-21.333-21.333
				C329.551,42.667,320,52.218,320,64v106.667c0,0,0,0.001,0,0.001C320,171.37,320.037,172.072,320.106,172.772z"/>
			<path d="M170.667,42.667c-11.782,0-21.333,9.551-21.333,21.333v55.163L36.418,6.248c-8.331-8.331-21.839-8.331-30.17,0
				c-8.331,8.331-8.331,21.839,0,30.17l112.915,112.915H64c-11.782,0-21.333,9.551-21.333,21.333C42.667,182.449,52.218,192,64,192
				h106.667c0.703,0,1.405-0.037,2.105-0.106c0.316-0.031,0.622-0.09,0.933-0.135c0.377-0.054,0.755-0.098,1.13-0.172
				c0.358-0.071,0.705-0.169,1.056-0.258c0.323-0.081,0.648-0.152,0.968-0.249c0.345-0.104,0.678-0.234,1.015-0.355
				c0.319-0.115,0.641-0.22,0.956-0.35c0.315-0.131,0.618-0.284,0.925-0.43c0.323-0.152,0.65-0.296,0.967-0.466
				c0.295-0.158,0.575-0.338,0.862-0.509c0.311-0.185,0.625-0.361,0.928-0.564c0.317-0.212,0.615-0.448,0.92-0.676
				c0.252-0.189,0.511-0.364,0.757-0.566c1.087-0.892,2.084-1.889,2.977-2.977c0.202-0.246,0.377-0.505,0.566-0.757
				c0.228-0.305,0.464-0.603,0.676-0.92c0.203-0.303,0.378-0.617,0.564-0.928c0.171-0.286,0.351-0.567,0.509-0.862
				c0.17-0.317,0.313-0.643,0.466-0.967c0.145-0.307,0.299-0.61,0.43-0.925c0.13-0.315,0.235-0.636,0.35-0.956
				c0.121-0.337,0.25-0.67,0.355-1.015c0.097-0.32,0.168-0.645,0.249-0.968c0.089-0.351,0.187-0.698,0.258-1.056
				c0.074-0.375,0.118-0.753,0.172-1.13c0.044-0.311,0.104-0.618,0.135-0.933c0.069-0.7,0.106-1.402,0.106-2.104
				c0,0,0-0.001,0-0.001V64C192,52.218,182.449,42.667,170.667,42.667z"/>
			<path d="M191.894,339.228c-0.031-0.316-0.09-0.622-0.135-0.933c-0.054-0.377-0.098-0.755-0.172-1.13
				c-0.071-0.358-0.169-0.705-0.258-1.056c-0.081-0.323-0.152-0.648-0.249-0.968c-0.104-0.345-0.234-0.678-0.355-1.015
				c-0.115-0.319-0.22-0.641-0.35-0.956c-0.131-0.315-0.284-0.618-0.43-0.925c-0.152-0.323-0.296-0.65-0.466-0.967
				c-0.158-0.295-0.338-0.575-0.509-0.862c-0.185-0.311-0.361-0.625-0.564-0.928c-0.212-0.317-0.448-0.615-0.676-0.92
				c-0.189-0.252-0.364-0.511-0.566-0.757c-0.892-1.087-1.889-2.084-2.977-2.977c-0.246-0.202-0.505-0.377-0.757-0.566
				c-0.305-0.228-0.603-0.464-0.92-0.676c-0.303-0.203-0.617-0.378-0.928-0.564c-0.286-0.171-0.567-0.351-0.862-0.509
				c-0.317-0.17-0.643-0.313-0.967-0.466c-0.307-0.145-0.61-0.299-0.925-0.43c-0.315-0.13-0.636-0.235-0.956-0.35
				c-0.337-0.121-0.67-0.25-1.015-0.355c-0.32-0.097-0.645-0.168-0.968-0.249c-0.351-0.089-0.698-0.187-1.056-0.258
				c-0.375-0.074-0.753-0.118-1.13-0.172c-0.311-0.044-0.618-0.104-0.933-0.135c-0.7-0.069-1.403-0.106-2.105-0.106H64
				c-11.782,0-21.333,9.551-21.333,21.333c0,11.782,9.551,21.333,21.333,21.333h55.163L6.248,475.582
				c-8.331,8.331-8.331,21.839,0,30.17c8.331,8.331,21.839,8.331,30.17,0l112.915-112.915V448c0,11.782,9.551,21.333,21.333,21.333
				c11.782,0,21.333-9.551,21.333-21.333V341.333c0,0,0-0.001,0-0.001C192,340.63,191.963,339.928,191.894,339.228z"/>
			<path d="M392.837,362.667H448c11.782,0,21.333-9.551,21.333-21.333c0-11.782-9.551-21.333-21.333-21.333H341.333
				c-0.703,0-1.405,0.037-2.105,0.106c-0.315,0.031-0.621,0.09-0.932,0.135c-0.378,0.054-0.756,0.098-1.13,0.173
				c-0.358,0.071-0.704,0.169-1.055,0.258c-0.324,0.081-0.649,0.152-0.969,0.249c-0.344,0.104-0.677,0.233-1.013,0.354
				c-0.32,0.115-0.642,0.22-0.957,0.35c-0.315,0.131-0.617,0.284-0.924,0.429c-0.324,0.153-0.65,0.296-0.968,0.466
				c-0.295,0.158-0.575,0.338-0.861,0.509c-0.311,0.186-0.626,0.362-0.929,0.565c-0.316,0.212-0.614,0.447-0.918,0.675
				c-0.253,0.19-0.512,0.365-0.759,0.567c-1.087,0.892-2.085,1.889-2.977,2.977c-0.202,0.246-0.378,0.506-0.568,0.759
				c-0.227,0.304-0.463,0.601-0.674,0.917c-0.203,0.304-0.379,0.619-0.565,0.93c-0.171,0.286-0.351,0.566-0.508,0.86
				c-0.17,0.317-0.313,0.643-0.466,0.967c-0.145,0.307-0.299,0.61-0.43,0.925c-0.13,0.315-0.235,0.636-0.35,0.956
				c-0.121,0.337-0.25,0.67-0.355,1.015c-0.097,0.32-0.168,0.645-0.249,0.968c-0.089,0.351-0.187,0.698-0.258,1.056
				c-0.074,0.374-0.118,0.753-0.172,1.13c-0.044,0.311-0.104,0.618-0.135,0.933c-0.069,0.7-0.106,1.402-0.106,2.104
				c0,0,0,0.001,0,0.001V448c0,11.782,9.551,21.333,21.333,21.333c11.782,0,21.333-9.551,21.333-21.333v-55.163l112.915,112.915
				c8.331,8.331,21.839,8.331,30.17,0c8.331-8.331,8.331-21.839,0-30.17L392.837,362.667z"/>
		</g>
	</g>
</g>
</svg>