<?xml version="1.0" encoding="iso-8859-1"?>
<!-- Generator: Adobe Illustrator 18.0.0, SVG Export Plug-In . SVG Version: 6.00 Build 0)  -->
<!DOCTYPE svg PUBLIC "-//W3C//DTD SVG 1.1//EN" "http://www.w3.org/Graphics/SVG/1.1/DTD/svg11.dtd">
<svg version="1.1" id="Capa_1" xmlns="http://www.w3.org/2000/svg" xmlns:xlink="http://www.w3.org/1999/xlink" x="0px" y="0px"
	 viewBox="0 0 330 330" style="enable-background:new 0 0 330 330;" xml:space="preserve">
<g>
	<path fill="#FFFFFF" d="M281.672,48.328C250.508,17.163,209.073,0,164.999,0C120.927,0,79.492,17.163,48.328,48.328
		c-64.333,64.334-64.333,169.011,0,233.345C79.492,312.837,120.927,330,165,330c44.073,0,85.508-17.163,116.672-48.328
		C346.005,217.339,346.005,112.661,281.672,48.328z M260.46,260.46C234.961,285.957,201.06,300,165,300
		c-36.06,0-69.961-14.043-95.46-39.54c-52.636-52.637-52.636-138.282,0-190.919C95.039,44.042,128.94,30,164.999,30
		c36.06,0,69.961,14.042,95.46,39.54C313.095,122.177,313.095,207.823,260.46,260.46z"/>
	<path fill="#FFFFFF" d="M254.999,150H180V75c0-8.284-6.716-15-15-15s-15,6.716-15,15v75H75c-8.284,0-15,6.716-15,15s6.716,15,15,15h75v75
		c0,8.284,6.716,15,15,15s15-6.716,15-15v-75h74.999c8.284,0,15-6.716,15-15S263.284,150,254.999,150z"/>
</g>
<g>
</g>
<g>
</g>
<g>
</g>
<g>
</g>
<g>
</g>
<g>
</g>
<g>
</g>
<g>
</g>
<g>
</g>
<g>
</g>
<g>
</g>
<g>
</g>
<g>
</g>
<g>
</g>
<g>
</g>
</svg>
