<?xml version="1.0" encoding="UTF-8" standalone="no"?>
<!DOCTYPE svg PUBLIC "-//W3C//DTD SVG 1.1//EN" "http://www.w3.org/Graphics/SVG/1.1/DTD/svg11.dtd">
<svg width="100%" height="100%" preserveAspectRatio="none" viewBox="0 0 68 237" version="1.1" xmlns="http://www.w3.org/2000/svg" xmlns:xlink="http://www.w3.org/1999/xlink" xml:space="preserve" xmlns:serif="http://www.serif.com/" style="fill-rule:evenodd;clip-rule:evenodd;stroke-linejoin:round;stroke-miterlimit:2;">
    <g transform="matrix(1,0,0,1,-232.965,-161.153)">
        <g transform="matrix(1,0,0,1,-32.0539,217.407)">
            <path vector-effect="non-scaling-stroke" d="M327.957,-51.255L323.597,-51.255C313.847,-51.255 307.379,-49.497 304.191,-45.981C301.004,-42.466 299.41,-34.614 299.41,-22.427C299.41,2.136 298.894,17.651 297.863,24.12C296.176,34.151 293.293,41.886 289.215,47.323C285.137,52.761 278.738,57.589 270.019,61.808C280.332,66.12 287.808,72.706 292.449,81.565C297.09,90.425 299.41,104.933 299.41,125.089C299.41,143.37 299.597,154.245 299.972,157.714C300.722,164.089 302.621,168.542 305.668,171.073C308.715,173.605 314.691,174.87 323.597,174.87L327.957,174.87" style="fill:none;fill-rule:nonzero;stroke:black;stroke-width:1px;"/>
        </g>
    </g>
</svg>
