<?xml version="1.0" encoding="UTF-8" standalone="no"?>
<svg
   width="800px"
   height="800px"
   viewBox="0 0 32 32"
   version="1.1"
   id="svg2"
   sodipodi:docname="sparql.svg"
   inkscape:version="1.3.2 (091e20e, 2023-11-25)"
   xmlns:inkscape="http://www.inkscape.org/namespaces/inkscape"
   xmlns:sodipodi="http://sodipodi.sourceforge.net/DTD/sodipodi-0.dtd"
   xmlns="http://www.w3.org/2000/svg"
   xmlns:svg="http://www.w3.org/2000/svg">
  <defs
     id="defs2" />
  <sodipodi:namedview
     id="namedview2"
     pagecolor="#ffffff"
     bordercolor="#999999"
     borderopacity="1"
     inkscape:showpageshadow="0"
     inkscape:pageopacity="0"
     inkscape:pagecheckerboard="0"
     inkscape:deskcolor="#d1d1d1"
     inkscape:zoom="0.295"
     inkscape:cx="400"
     inkscape:cy="398.30508"
     inkscape:window-width="1792"
     inkscape:window-height="1120"
     inkscape:window-x="0"
     inkscape:window-y="0"
     inkscape:window-maximized="0"
     inkscape:current-layer="svg2" />
  <title
     id="title1">file_type_sparql</title>
  <path
     id="path1"
     style="fill:#ffffff"
     d="M 23.554453 1.9782031 A 5.342 5.342 0 0 0 18.676016 4.7239844 A 5.067 5.067 0 0 0 18.152969 7.9379688 L 18.1 7.855 C 18.1 7.855 18.400012 9.1740332 15.261016 11.127031 C 12.146019 13.077029 10.712031 12.088984 10.712031 12.088984 L 10.793984 12.227031 A 2.131 2.131 0 0 0 10.521016 12.06 A 5.117 5.117 0 1 0 11.346016 20.58 L 11.321016 20.635 C 11.321016 20.635 12.449972 19.702033 15.727969 21.462031 C 18.319966 22.83603 18.707016 24.210032 18.761016 24.702031 A 5.1 5.1 0 0 0 21.461016 29.402031 A 5.124 5.124 0 1 0 26.286016 20.361016 L 26.283984 20.361016 C 26.118985 20.277016 25.925015 20.196969 25.761016 20.112969 L 25.9 20.112969 C 25.9 20.112969 24.742 19.613028 24.66 15.937031 C 24.549 12.282035 25.76 11.647969 25.76 11.647969 A 4.96 4.96 0 0 0 27.936016 9.505 A 5.122 5.122 0 0 0 25.813984 2.5779688 A 5.342 5.342 0 0 0 23.554453 1.9782031 z M 22.728594 2.8439062 A 3.826 3.826 0 0 1 25.331328 3.5774219 C 25.351738 3.5899099 25.372476 3.6020417 25.391797 3.6154688 A 3.826 3.826 0 0 1 25.538984 3.7079688 L 25.51 3.7079688 C 25.473655 3.6746522 25.433478 3.644435 25.391797 3.6154688 A 3.826 3.826 0 0 0 25.331328 3.5774219 C 24.59623 3.1276347 23.168777 3.2861007 21.9 4.12 A 0.934 0.934 0 0 1 22.2 4.805 A 1.056 1.056 0 0 1 21.186016 5.9310156 A 0.993 0.993 0 0 1 20.91 5.905 C 20.882 5.905 20.852969 5.8760156 20.827969 5.8760156 A 0.673 0.673 0 0 0 20.082031 6.1529688 C 19.487969 7.2673524 19.36781 8.4401348 19.751328 9.1996094 A 3.861 3.861 0 0 0 20.052969 9.615 C 19.930031 9.4975492 19.830695 9.3567781 19.751328 9.1996094 A 3.861 3.861 0 0 1 20.135 4.2289844 A 3.826 3.826 0 0 1 22.728594 2.8439062 z M 19.616563 11.269922 C 20.017097 11.250059 20.246859 11.315641 20.328984 11.346016 A 2.83 2.83 0 0 0 20.798984 11.622969 A 4.082 4.082 0 0 0 21.762969 12.006016 C 22.149968 12.363015 22.839016 13.380018 22.921016 16.106016 C 23.003016 18.832013 22.203968 19.870032 21.762969 20.227031 A 5.04 5.04 0 0 0 20.493984 21.047031 L 20.493984 21.046016 C 20.081985 21.184015 18.894029 21.345983 16.417031 20.028984 C 13.717034 18.574986 13.301969 17.364968 13.247969 17.007969 A 5.406 5.406 0 0 0 13.191016 15.688984 L 13.22 15.715 C 13.22 15.715 12.999987 14.533982 16.083984 12.638984 C 17.807108 11.57336 18.949005 11.303027 19.616563 11.269922 z M 7.7375 12.473125 A 3.852 3.852 0 0 1 10.258828 13.146641 C 10.317677 13.177011 10.372119 13.21131 10.423203 13.248516 A 3.852 3.852 0 0 1 10.545 13.323984 L 10.52 13.323984 C 10.490219 13.296808 10.456545 13.272799 10.423203 13.248516 A 3.852 3.852 0 0 0 10.258828 13.146641 C 9.5009928 12.755544 8.1303773 12.93218 6.91 13.736016 A 0.945 0.945 0 0 1 7.21 14.425 A 1.056 1.056 0 0 1 6.1920313 15.552031 A 1 1 0 0 1 5.9160156 15.526016 C 5.8880157 15.526016 5.8589843 15.497031 5.8339844 15.497031 A 0.668 0.668 0 0 0 5.0879687 15.77 C 4.492141 16.890189 4.3760044 18.064155 4.7646094 18.824844 A 3.859 3.859 0 0 0 5.0629688 19.235 C 4.9417972 19.11856 4.8436387 18.979543 4.7646094 18.824844 A 3.859 3.859 0 0 1 5.145 13.846016 A 3.852 3.852 0 0 1 7.7375 12.473125 z M 23.612578 20.623203 A 3.829 3.829 0 0 1 26.217578 21.357578 C 26.237898 21.370018 26.258572 21.382097 26.277812 21.395469 A 3.829 3.829 0 0 1 26.425 21.487969 L 26.396016 21.487969 C 26.35967 21.454652 26.319493 21.424435 26.277812 21.395469 A 3.829 3.829 0 0 0 26.217578 21.357578 C 25.482555 20.907599 24.054939 21.066005 22.786016 21.9 A 0.936 0.936 0 0 1 23.086016 22.588984 A 1.057 1.057 0 0 1 22.067969 23.715 A 0.887 0.887 0 0 1 21.792031 23.686016 C 21.764031 23.686016 21.735 23.66 21.71 23.66 A 0.668 0.668 0 0 0 20.963984 23.932969 C 20.368763 25.052019 20.249459 26.22479 20.635703 26.985547 A 3.865 3.865 0 0 0 20.935 27.397969 C 20.813223 27.280947 20.714726 27.141192 20.635703 26.985547 A 3.865 3.865 0 0 1 21.017031 22.008984 A 3.829 3.829 0 0 1 23.612578 20.623203 z " />
</svg>
