<?xml version="1.0" encoding="UTF-8" standalone="no"?>
<!-- Uploaded to: SVG Repo, www.svgrepo.com, Generator: SVG Repo Mixer Tools -->

<svg
   width="649.69598"
   height="700.98633"
   viewBox="0 0 25.987839 28.039453"
   version="1.1"
   id="svg2"
   xmlns="http://www.w3.org/2000/svg"
   xmlns:svg="http://www.w3.org/2000/svg">
  <defs
     id="defs2" />
  <title
     id="title1">file_type_sparql</title>
  <path
     d="m 23.25907,18.386806 c -0.165,-0.084 -0.359,-0.164 -0.523,-0.248 h 0.139 c 0,0 -1.158,-0.5 -1.24,-4.176 -0.111,-3.655 1.1,-4.2889999 1.1,-4.2889999 a 4.96,4.96 0 0 0 2.176,-2.143 5.122,5.122 0 0 0 -2.122,-6.92700003 5.342,5.342 0 0 0 -7.138,2.14600003 5.067,5.067 0 0 0 -0.523,3.214 l -0.053,-0.083 c 0,0 0.3,1.319 -2.839,3.272 C 9.1210702,11.102806 7.6870702,10.114806 7.6870702,10.114806 l 0.082,0.138 a 2.131,2.131 0 0 0 -0.273,-0.167 5.117,5.117 0 1 0 0.825,8.52 l -0.025,0.055 c 0,0 1.129,-0.933 4.4069998,0.827 2.592,1.374 2.979,2.748 3.033,3.24 a 5.1,5.1 0 0 0 2.7,4.7 5.124,5.124 0 1 0 4.825,-9.041 z m -5.79,0.685 c -0.412,0.138 -1.6,0.3 -4.077,-1.017 -2.7,-1.454 -3.115,-2.664 -3.169,-3.021 a 5.406,5.406 0 0 0 -0.057,-1.319 l 0.029,0.026 c 0,0 -0.2199998,-1.181 2.864,-3.076 2.757,-1.7049999 4.026,-1.3739999 4.245,-1.2929999 a 2.83,2.83 0 0 0 0.47,0.277 4.082,4.082 0 0 0 0.964,0.3829999 c 0.387,0.357 1.076,1.374 1.158,4.1 0.082,2.726 -0.717,3.764 -1.158,4.121 a 5.04,5.04 0 0 0 -1.269,0.82 z"
     style="fill:#ffffff"
     id="path1" />
</svg>
