<?xml version="1.0" encoding="UTF-8" standalone="no"?><!DOCTYPE svg PUBLIC "-//W3C//DTD SVG 1.1//EN" "http://www.w3.org/Graphics/SVG/1.1/DTD/svg11.dtd"><!-- Uploaded to: SVG Repo, www.svgrepo.com, Generator: SVG Repo Mixer Tools -->
<svg fill="#ffffff" width="800px" height="800px" viewBox="0 0 32 32" version="1.1" xmlns="http://www.w3.org/2000/svg" xmlns:xlink="http://www.w3.org/1999/xlink" xml:space="preserve" xmlns:serif="http://www.serif.com/" style="fill-rule:evenodd;clip-rule:evenodd;stroke-linejoin:round;stroke-miterlimit:2;"><path d="M16,5.5l12,-0c0.828,0 1.5,-0.672 1.5,-1.5c0,-0.828 -0.672,-1.5 -1.5,-1.5l-12,-0c-0.828,0 -1.5,0.672 -1.5,1.5c0,0.828 0.672,1.5 1.5,1.5Z"/><path d="M3.995,29.4l24.038,0.081c0.828,0.003 1.502,-0.667 1.505,-1.495c0.002,-0.828 -0.667,-1.502 -1.495,-1.505l-24.038,-0.081c-0.828,-0.002 -1.502,0.667 -1.505,1.495c-0.003,0.828 0.667,1.503 1.495,1.505Z"/><path d="M4.018,17.457l24.038,0.081c0.828,0.003 1.502,-0.667 1.505,-1.495c0.003,-0.828 -0.667,-1.502 -1.495,-1.505l-24.038,-0.081c-0.828,-0.003 -1.502,0.667 -1.505,1.495c-0.003,0.828 0.667,1.502 1.495,1.505Z"/><path d="M4,23.496l24,0c0.828,0 1.5,-0.672 1.5,-1.5c-0,-0.828 -0.672,-1.5 -1.5,-1.5l-24,0c-0.828,0 -1.5,0.672 -1.5,1.5c-0,0.828 0.672,1.5 1.5,1.5Z"/><path d="M16,11.5l12,-0.004c0.828,-0 1.5,-0.673 1.5,-1.5c-0,-0.828 -0.673,-1.5 -1.5,-1.5l-12,0.004c-0.828,0 -1.5,0.673 -1.5,1.5c0,0.828 0.673,1.5 1.5,1.5Z"/><path d="M11,4.007c0,-0.552 -0.448,-1 -1,-1l-6.009,-0c-0.552,-0 -1,0.448 -1,1l-0,5.993c-0,0.552 0.448,1 1,1l6.009,0c0.552,0 1,-0.448 1,-1l0,-5.993Z"/></svg>