<?xml version="1.0" encoding="UTF-8" standalone="no"?>
<!-- Created with Inkscape (http://www.inkscape.org/) -->

<svg
   version="1.1"
   id="svg1"
   width="340.16"
   height="113.28"
   viewBox="0 0 340.16 113.28"
   sodipodi:docname="dsl_logo_blue.svg"
   inkscape:version="1.3 (0e150ed, 2023-07-21)"
   xmlns:inkscape="http://www.inkscape.org/namespaces/inkscape"
   xmlns:sodipodi="http://sodipodi.sourceforge.net/DTD/sodipodi-0.dtd"
   xmlns="http://www.w3.org/2000/svg"
   xmlns:svg="http://www.w3.org/2000/svg">
  <defs
     id="defs1" />
  <sodipodi:namedview
     id="namedview1"
     pagecolor="#ffffff"
     bordercolor="#999999"
     borderopacity="1"
     inkscape:showpageshadow="0"
     inkscape:pageopacity="0"
     inkscape:pagecheckerboard="0"
     inkscape:deskcolor="#d1d1d1"
     inkscape:zoom="1.9438344"
     inkscape:cx="151.24745"
     inkscape:cy="4.3728004"
     inkscape:window-width="1792"
     inkscape:window-height="1120"
     inkscape:window-x="0"
     inkscape:window-y="0"
     inkscape:window-maximized="0"
     inkscape:current-layer="g1" />
  <g
     inkscape:groupmode="layer"
     inkscape:label="Image"
     id="g1">
    <path
       style="fill:#485d75;fill-opacity:1"
       d="m 133.5647,107.49468 v -0.32 h 102.08 102.08 v 0.32 0.32 h -102.08 -102.08 z M 2.3646945,57.654677 V 7.8146754 H 52.204696 102.0447 V 57.654677 107.49468 H 52.204696 2.3646945 Z m 98.8800055,0 V 8.6146754 h -32.720004 -32.72 V 57.654677 106.69468 h 32.72 32.720004 z M 68.120297,104.0305 c -1.30977,-0.87466 -1.86533,-1.71994 -1.564452,-2.38029 0.259083,-0.56863 0.865367,-0.67802 1.582058,-0.28545 l 0.586827,0.32144 0.379983,-0.2922 c 0.911569,-0.70099 2.093865,-0.0301 1.71288,0.97196 -0.198715,0.52266 -0.538739,0.90277 -1.316903,1.47214 -0.725214,0.53063 -0.848227,0.54778 -1.380393,0.1924 z m -11.755601,-3.83515 c -2.253912,-0.346114 -3.772065,-0.651379 -6.308083,-1.268406 l -2.948082,-0.717284 -0.684978,0.261596 c -1.007398,0.384728 -1.389262,0.218334 -2.135886,-0.930695 -0.353634,-0.544231 -0.642971,-1.086307 -0.642971,-1.204613 0,-0.118306 0.447175,-0.649954 0.993723,-1.181441 1.089591,-1.059566 1.427866,-1.128037 2.345352,-0.47473 0.887592,0.632022 7.48396,1.495767 8.771351,1.148543 l 0.670425,-0.180821 -0.169766,-0.486991 c -0.430582,-1.23517 0.173861,-2.952874 1.569576,-4.460413 1.084557,-1.171451 1.082021,-1.285418 -0.02861,-1.285418 -1.335921,0 -2.107554,-0.534684 -3.108189,-2.153745 l -0.381036,-0.61653 1.192071,-1.142913 c 0.655638,-0.628602 1.535165,-1.309002 1.954503,-1.512 l 0.762434,-0.369088 -0.445812,-0.582862 c -0.727466,-0.951102 -1.806025,-2.596619 -1.806025,-2.755383 0,-0.228916 0.119861,-0.186332 1.111648,0.394938 1.501612,0.88007 1.531732,0.87906 2.043278,-0.06854 0.562787,-1.042518 0.947897,-1.543388 1.083133,-1.408714 0.05808,0.05784 0.276117,0.525841 0.484521,1.04 0.53958,1.331212 0.637414,1.355753 2.019382,0.506553 1.179205,-0.724606 1.738038,-0.99429 1.738038,-0.838752 0,0.187173 -0.561951,1.165911 -1.186804,2.067033 -0.366124,0.528 -0.719774,1.047821 -0.785888,1.155158 -0.07897,0.128214 0.06594,0.272935 0.422457,0.421898 0.645771,0.26982 0.937719,0.663964 1.943606,2.623955 1.447124,2.819751 2.052864,2.837296 9.130463,0.264447 3.885168,-1.412338 5.762578,-1.825458 8.295728,-1.825458 h 1.8493 l 0.56061,-0.492222 c 1.04998,-0.921888 0.8941,-2.150563 -0.32382,-2.552513 -0.76583,-0.252746 -2.94285,-0.122741 -3.98565,0.238012 -0.44,0.152216 -2.01032,0.884817 -3.489595,1.628003 -3.853198,1.935841 -5.176419,2.350848 -7.224416,2.265818 -1.853365,-0.07695 -3.285991,-0.56227 -3.285991,-1.113175 0,-1.326609 3.62172,-4.933923 4.953626,-4.933923 0.41666,0 0.410658,0.142017 -0.07452,1.762972 -0.515121,1.721011 -0.353378,2.337894 0.559561,2.134145 0.220731,-0.04926 1.809855,-0.766996 3.531386,-1.594963 4.534965,-2.181084 6.989465,-2.711932 9.507135,-2.056162 1.86497,0.485762 2.64622,1.410646 2.63929,3.124524 -0.005,1.154725 -0.39021,1.951358 -1.57958,3.263782 -1.08144,1.193318 -1.21585,1.514483 -1.09237,2.610034 0.1158,1.027377 0.68001,1.505622 2.21237,1.875284 1.88691,0.455193 3.97447,1.172453 4.49859,1.545658 l 0.48341,0.34422 -0.0815,1.135253 c -0.0448,0.624389 -0.26908,1.675253 -0.49834,2.335253 -0.25398,0.731177 -0.41727,1.547484 -0.41795,2.089419 -6.1e-4,0.489181 -0.0911,1.006877 -0.20111,1.150437 -0.22884,0.29865 -1.78763,0.91994 -2.30839,0.92006 -0.32697,8e-5 -1.01161,-0.668566 -1.01161,-0.987972 0,-0.0797 -0.153,-0.351845 -0.34,-0.604776 -0.54219,-0.733348 -0.44151,-1.186629 0.48,-2.160983 0.451,-0.476866 0.82,-0.976535 0.82,-1.110374 0,-1.068114 -5.14095,-2.638571 -9.0894,-2.776631 -4.51299,-0.157799 -6.514674,0.506731 -8.122035,2.696395 -1.49642,2.038531 -4.873962,3.766274 -8.880394,4.542664 -1.329918,0.257717 -5.054406,0.445827 -5.988173,0.302437 z m 5.745763,-4.618652 c 0.322408,-1.230889 0.659989,-2.310889 0.750181,-2.4 0.311755,-0.308021 0.7431,0.716644 0.768107,1.824646 0.02118,0.938373 0.132057,0.779115 0.482945,-0.693663 0.160552,-0.673885 0.336226,-1.269559 0.390386,-1.32372 0.09558,-0.09558 0.902618,1.572687 0.902618,1.865836 0,0.0803 0.0612,0.183817 0.135995,0.230044 0.142338,0.08797 0.115726,-0.482989 -0.152188,-3.265164 -0.280343,-2.911258 -1.20227,-5.89666 -2.170143,-7.027402 -0.90561,-1.058001 -1.091607,-0.924935 -1.292643,0.924781 -0.180198,1.657989 -0.49102,2.483641 -1.342313,3.565646 -0.594569,0.755705 -0.578373,0.828862 0.110748,0.500243 1.034693,-0.49341 1.107523,0.305042 0.234034,2.565762 -0.265428,0.686967 -0.528187,1.550967 -0.583908,1.92 l -0.101311,0.67097 0.545769,-1.04 c 0.903207,-1.721122 1.127095,-1.198796 0.704903,1.644522 -0.491804,3.312132 -0.244839,3.327146 0.61682,0.0375 z m 1.289495,-3.449694 c -0.06592,-0.106667 -0.302578,-0.146863 -0.560708,-0.09524 -0.615566,0.123113 -0.830761,-0.172942 -0.631281,-0.868489 0.220808,-0.769914 0.194708,-1.475503 -0.06786,-1.834591 -0.196261,-0.268402 -0.184444,-0.385854 0.09367,-0.930997 0.175044,-0.343116 0.358185,-1.010659 0.406979,-1.48343 0.04879,-0.47277 0.142987,-0.859583 0.209318,-0.859583 0.330564,0 1.330208,3.252393 1.529501,4.976307 0.09078,0.785285 0.06655,0.909163 -0.195627,1.000103 -0.164584,0.05709 -0.382646,0.14355 -0.484582,0.192139 -0.101935,0.04859 -0.236667,0.0053 -0.299404,-0.09622 z m -4.315258,-6.382398 1.6,-0.458135 -0.48,-0.19217 c -0.264,-0.105693 -0.746992,-0.288592 -1.073315,-0.406441 l -0.593314,-0.21427 -0.566686,0.77198 c -0.49593,0.675592 -0.66441,0.983688 -0.526685,0.963139 0.022,-0.0033 0.76,-0.212129 1.64,-0.464103 z m 17.165836,14.062761 c -1.158257,-0.597926 -1.312822,-0.870495 -1.008257,-1.778017 0.128223,-0.38207 0.272365,-0.891762 0.320317,-1.132649 0.131878,-0.662496 0.77486,-1.016513 1.497994,-0.824775 0.814292,0.215907 1.887372,-0.02192 2.191212,-0.485632 0.2687,-0.410092 0.12162,-1.030174 -0.37824,-1.594648 l -0.26886,-0.303617 1.44,0.100308 c 0.792,0.05517 1.92713,0.227997 2.52251,0.384059 l 1.08251,0.28375 -0.93935,1.439265 c -1.11254,1.704627 -1.5939,2.183425 -2.66567,2.651479 -0.44,0.192154 -1.10479,0.664014 -1.47731,1.048579 -0.803761,0.829751 -1.072406,0.854321 -2.316856,0.211898 z M 51.516609,91.429414 c -2.517773,-2.478515 -3.087877,-2.963262 -3.597464,-3.058847 -1.065896,-0.199934 -1.29824,-0.518044 -1.366561,-1.870999 -0.06648,-1.316573 0.10136,-1.652372 0.9033,-1.807199 0.235846,-0.04554 0.744086,-0.155847 1.129421,-0.245139 0.863994,-0.200209 1.305534,0.03861 1.775863,0.960531 0.538904,1.056341 4.140428,3.8854 5.699886,4.477359 l 0.727064,0.275988 -0.736067,0.862324 c -0.735632,0.861816 -1.207355,1.99498 -1.207355,2.900285 0,0.248028 -0.07564,0.45096 -0.168087,0.45096 -0.09245,0 -1.514447,-1.325368 -3.16,-2.945263 z m -11.277005,0.136047 c -0.946742,-0.694544 -1.371162,-1.484473 -1.107963,-2.062132 0.259731,-0.570048 0.866059,-0.675189 1.553763,-0.269434 l 0.564373,0.332988 0.517459,-0.315505 c 0.655627,-0.399748 0.995214,-0.398946 1.39746,0.0033 0.633632,0.633632 0.278396,1.484517 -1.009166,2.417222 -0.810877,0.587396 -0.983202,0.577823 -1.915926,-0.106438 z m 54.913274,0.0099 c -0.4025,-0.302278 -0.8679,-0.80229 -1.03423,-1.111138 l -0.30241,-0.561542 0.33028,-0.444003 c 0.424,-0.56999 0.94163,-0.640779 1.52605,-0.208697 l 0.4643,0.343272 0.5328,-0.329289 c 0.65809,-0.406722 1.08543,-0.417685 1.43023,-0.03669 0.57986,0.640736 0.19012,1.535875 -1.06437,2.444623 -0.80817,0.585436 -0.98676,0.576279 -1.88265,-0.09654 z m -27.444176,-20.699 c -1.364605,-1.002264 -1.706135,-1.756341 -1.099208,-2.426987 0.364296,-0.402544 0.882869,-0.400578 1.398861,0.0053 0.502376,0.395169 0.507723,0.395099 1.061035,-0.01398 0.561581,-0.415195 1.090889,-0.350154 1.487171,0.182744 0.489959,0.658871 -0.03749,1.573107 -1.391865,2.412542 -0.629781,0.390335 -0.720808,0.380356 -1.455994,-0.159617 z M 54.444696,66.999617 c -0.968,-0.17007 -3.044568,-0.625837 -4.614595,-1.012817 l -2.854595,-0.7036 -0.561632,0.234665 c -1.163351,0.486079 -1.748235,0.143797 -2.692079,-1.575439 -0.23537,-0.428732 -0.06793,-1.247751 0.25509,-1.247751 0.06645,0 0.388041,-0.281994 0.714639,-0.626653 0.772216,-0.81492 1.043756,-0.867777 1.956082,-0.380767 1.443869,0.770754 8.076077,1.630125 9.19096,1.190923 l 0.43387,-0.170921 -0.174474,-0.500496 c -0.411738,-1.181112 0.159319,-2.829144 1.462387,-4.220346 0.418174,-0.446457 0.848731,-0.981168 0.956795,-1.188247 l 0.196479,-0.376507 -0.636444,0.107526 C 56.739945,56.755112 55.26579,55.802496 54.41919,54.165354 l -0.242721,-0.469372 1.031679,-1.006624 c 0.567424,-0.553644 1.432016,-1.23256 1.921315,-1.508704 l 0.889636,-0.502079 -1.107202,-1.568887 c -0.971484,-1.376579 -1.271985,-1.935012 -1.041256,-1.935012 0.03627,0 0.57781,0.295112 1.203423,0.655804 0.625613,0.360693 1.237116,0.61757 1.358895,0.570839 0.12178,-0.04673 0.455889,-0.524879 0.742465,-1.062551 0.649509,-1.218603 0.897494,-1.19973 1.4282,0.108697 0.22059,0.543851 0.451092,1.036978 0.512227,1.095837 0.06114,0.05886 0.711273,-0.261002 1.44475,-0.710804 2.080388,-1.275791 2.148654,-1.174392 0.684095,1.016127 -1.178181,1.762188 -1.145265,1.686051 -0.728922,1.686051 0.546722,0 1.106965,0.675062 2.056843,2.478387 0.980075,1.860652 1.589428,2.481613 2.435224,2.481613 0.817835,0 3.592838,-0.79918 6.673986,-1.922058 4.211731,-1.534902 5.229801,-1.769708 8.000301,-1.845168 2.48645,-0.06772 2.88907,-0.194474 3.33075,-1.048589 0.67665,-1.308496 -0.25721,-2.224185 -2.26832,-2.224185 -1.48138,0 -2.70666,0.419421 -6.059862,2.074337 -5.177423,2.555225 -7.109581,2.901765 -9.784946,1.75497 l -0.73399,-0.314626 0.102208,-0.517341 c 0.234393,-1.186411 2.396641,-3.57692 3.945125,-4.361595 1.241252,-0.628991 1.529479,-0.452385 1.099732,0.673839 -0.426866,1.118674 -0.612248,2.151354 -0.4587,2.555215 0.233659,0.614569 0.881499,0.426677 4.230571,-1.226984 3.656112,-1.80527 5.172242,-2.27236 7.440002,-2.292127 3.19645,-0.02786 4.635,0.877666 4.77032,3.002784 0.0827,1.298968 -0.35427,2.299956 -1.63312,3.740943 -0.98488,1.109753 -1.13986,1.488473 -1.00884,2.465308 0.14378,1.071903 0.69102,1.461887 2.83164,2.017896 2.1708,0.563851 3.53069,1.055185 4.02232,1.453279 0.50186,0.406387 0.44063,1.644014 -0.17669,3.571168 -0.29784,0.929795 -0.48563,1.855797 -0.48563,2.394684 0,1.006749 -0.15795,1.205962 -1.28535,1.621134 -1.26028,0.464106 -1.89355,0.296347 -2.16618,-0.573832 -0.0619,-0.197479 -0.24659,-0.530762 -0.41048,-0.74063 -0.49141,-0.629251 -0.38592,-1.26555 0.31881,-1.923 1.69293,-1.579342 1.19159,-2.117016 -3.06054,-3.282397 -2.80194,-0.767925 -4.26763,-0.95408 -6.66081,-0.845977 -3.292015,0.148704 -5.079029,0.840486 -6.243695,2.417037 -2.904617,3.931835 -10.235968,6.050221 -16.891757,4.880856 z m 7.452436,-4.143231 c 0.507832,-2.06958 0.692519,-2.561711 0.961358,-2.561711 0.255676,0 0.626206,1.043948 0.626206,1.764304 0,0.828477 0.244276,0.700658 0.38367,-0.200757 0.141724,-0.916489 0.410783,-1.723547 0.574599,-1.723547 0.0734,0 0.331366,0.504449 0.573261,1.120998 0.241894,0.616549 0.457774,1.102549 0.479732,1.08 0.116023,-0.119141 -0.313295,-4.40299 -0.565328,-5.640998 -0.595237,-2.923855 -1.872803,-5.519999 -2.716399,-5.519999 -0.243452,0 -0.302134,0.204644 -0.398207,1.388699 -0.138877,1.711575 -0.324032,2.264699 -1.180064,3.525262 l -0.67243,0.990197 0.583814,-0.243933 c 1.066508,-0.445616 1.112008,0.108871 0.219048,2.669436 -0.77758,2.22971 -0.823201,2.821471 -0.117198,1.520171 0.940386,-1.73331 1.129323,-1.240579 0.676445,1.764108 -0.462741,3.07013 -0.173638,3.104413 0.571493,0.06777 z m 0.178616,-3.851445 c -0.130799,-0.209443 -0.139563,-0.424861 -0.0291,-0.71539 0.225982,-0.594378 0.19505,-1.563116 -0.06109,-1.913416 -0.190211,-0.260128 -0.16929,-0.406774 0.158437,-1.110581 0.207671,-0.445983 0.37939,-1.026878 0.381597,-1.290878 0.0168,-2.009578 1.392017,1.26053 1.682166,3.999999 l 0.101678,0.96 -0.434666,0.195471 c -0.265873,0.119564 -0.531468,0.141297 -0.683945,0.05597 -0.137104,-0.07673 -0.401972,-0.08145 -0.588596,-0.0105 -0.251897,0.09577 -0.387534,0.0518 -0.526472,-0.170676 z m -3.151875,-6.170476 c 0.8331,-0.231115 1.483538,-0.470674 1.445419,-0.532353 -0.08493,-0.137413 -1.988646,-0.724718 -2.052092,-0.633079 -0.025,0.0361 -0.227637,0.317643 -0.450313,0.625643 -0.532895,0.737088 -0.660468,0.96 -0.549409,0.96 0.05042,0 0.773294,-0.189095 1.606395,-0.420211 z m 17.263652,14.128078 c -1.42066,-0.752013 -1.494522,-1.159698 -0.595958,-3.289394 l 0.228482,-0.541526 0.958527,0.08692 c 2.171952,0.196946 3.032222,-0.562899 2.134682,-1.885494 l -0.41143,-0.606285 1.3244,0.110451 c 1.2819,0.106906 3.30467,0.519467 3.52769,0.719502 0.0601,0.05388 -0.3507,0.797016 -0.91281,1.651414 -1.02436,1.556998 -1.55703,2.038351 -2.79641,2.526984 -0.308,0.121431 -0.85303,0.531009 -1.21118,0.910174 -0.756323,0.800696 -1.2113,0.864964 -2.245993,0.317258 z M 54.266273,61.230135 c -0.253867,-0.189497 -1.685577,-1.549739 -3.181577,-3.02276 -2.265566,-2.230767 -2.818336,-2.69532 -3.308583,-2.780568 -1.021671,-0.177657 -1.287027,-0.523295 -1.356494,-1.766891 -0.07914,-1.416796 0.130474,-1.759375 1.174338,-1.919238 1.726518,-0.264408 2.010101,-0.21787 2.365633,0.388221 0.924382,1.57584 5.293261,4.965776 6.399787,4.965776 0.354821,0 0.314774,0.099 -0.376743,0.931295 -0.87769,1.056375 -1.166011,1.706085 -1.193781,2.690097 -0.01329,0.470805 -0.03245,0.856594 -0.04258,0.857309 -0.01013,7.15e-4 -0.226132,-0.153744 -0.48,-0.343241 z M 40.345737,58.813807 c -0.77174,-0.518605 -1.501041,-1.407767 -1.501041,-1.830066 0,-0.29037 0.719645,-1.009066 1.010399,-1.009066 0.12372,0 0.478754,0.17224 0.788964,0.382754 l 0.564019,0.382753 0.298309,-0.292665 c 0.761115,-0.746716 1.818309,-0.381392 1.818309,0.628335 0,0.499241 -0.842189,1.464322 -1.726085,1.977955 l -0.48035,0.279132 z m 54.843641,-0.05226 c -0.80289,-0.540694 -1.4628,-1.349378 -1.46408,-1.794143 -8e-4,-0.277225 0.72701,-0.992728 1.0098,-0.992728 0.12372,0 0.4825,0.174785 0.7973,0.388411 0.46433,0.315102 0.60543,0.348549 0.74763,0.177214 0.37611,-0.453182 1.0937,-0.62272 1.50237,-0.354949 0.98118,0.642898 0.47319,1.732768 -1.34466,2.884903 l -0.40696,0.257926 z M 67.884696,38.233661 c -0.805158,-0.502923 -1.56,-1.399316 -1.56,-1.852537 0,-0.928822 0.921122,-1.326258 1.683659,-0.726446 0.502376,0.395168 0.507723,0.395098 1.061035,-0.01398 0.56532,-0.41796 1.091324,-0.349555 1.495983,0.194547 l 0.312782,0.420565 -0.274782,0.57906 c -0.274773,0.579041 -1.607834,1.700341 -2.020113,1.699213 -0.12021,-3.29e-4 -0.434564,-0.135518 -0.698564,-0.300419 z m -13.44,-4.017057 c -0.968,-0.170388 -3.047283,-0.628973 -4.620629,-1.019078 l -2.860628,-0.709281 -0.555599,0.232143 c -1.156947,0.483404 -1.74357,0.138782 -2.686045,-1.57796 -0.23537,-0.428732 -0.06793,-1.24775 0.25509,-1.24775 0.06645,0 0.393732,-0.288 0.727287,-0.640003 0.708782,-0.74798 1.244483,-0.82434 2.095075,-0.29864 1.127156,0.696618 7.96474,1.545433 9.039319,1.122134 l 0.43387,-0.17091 -0.174474,-0.500496 c -0.411738,-1.181108 0.159319,-2.829148 1.462387,-4.220348 0.418174,-0.44645 0.848731,-0.98117 0.956795,-1.18824 l 0.196479,-0.37651 -0.636444,0.10752 c -1.337234,0.22593 -2.811389,-0.72669 -3.657989,-2.36383 l -0.242721,-0.46937 1.031679,-1.00663 c 0.567424,-0.55364 1.438194,-1.23604 1.935045,-1.51645 l 0.903366,-0.50983 -0.454851,-0.5842 c -0.757523,-0.97294 -1.787012,-2.55526 -1.787012,-2.74663 0,-0.099 0.542842,0.11967 1.206317,0.48592 0.663474,0.36625 1.304652,0.62817 1.42484,0.58205 0.120188,-0.0461 0.452995,-0.52377 0.739571,-1.06144 0.649509,-1.21861 0.897494,-1.19973 1.4282,0.10869 0.22059,0.54385 0.451092,1.03698 0.512227,1.09584 0.06114,0.0589 0.711273,-0.261 1.44475,-0.7108 2.080388,-1.2758 2.148654,-1.1744 0.684095,1.01612 -1.160122,1.73518 -1.137258,1.68605 -0.784699,1.68605 0.577224,0 1.175656,0.69579 2.065469,2.40148 0.928554,1.77996 1.388203,2.31938 2.136361,2.50716 0.668927,0.16789 3.435811,-0.55303 6.662869,-1.73602 4.429988,-1.62397 5.765252,-1.93785 8.413522,-1.97777 2.38599,-0.036 2.82234,-0.17597 3.27466,-1.05066 0.74196,-1.4348 -0.40047,-2.35958 -2.69115,-2.17843 -1.57513,0.12457 -2.52285,0.45736 -5.237032,1.83901 -5.368399,2.73277 -7.512636,3.14277 -10.205789,1.95146 l -0.714266,-0.31595 0.102768,-0.52014 c 0.234935,-1.18908 2.395395,-3.5788 3.945684,-4.36439 1.241252,-0.62899 1.529479,-0.45239 1.099732,0.67384 -0.426866,1.11867 -0.612248,2.15135 -0.4587,2.55521 0.233912,0.61524 0.884183,0.42694 4.230571,-1.22501 3.678132,-1.81573 5.179642,-2.27806 7.440002,-2.29085 3.12131,-0.0177 4.6021,0.86688 4.76632,2.84713 0.10939,1.31906 -0.19304,2.15224 -1.22461,3.37378 -1.43446,1.69863 -1.48705,1.80114 -1.41629,2.76115 0.0952,1.29131 0.54144,1.64182 2.87364,2.25708 2.20746,0.58235 3.41169,1.02021 3.94967,1.43612 0.53819,0.41607 0.49104,1.59321 -0.1431,3.572869 -0.29784,0.929796 -0.48563,1.855798 -0.48563,2.394684 0,1.006749 -0.15795,1.205962 -1.28535,1.621135 -1.2684,0.467097 -1.72234,0.377143 -2.08356,-0.412885 -0.171,-0.374 -0.41895,-0.819762 -0.551,-0.990581 -0.44515,-0.57585 -0.29996,-1.179779 0.46158,-1.919906 0.85795,-0.833839 1.02897,-1.279961 0.65082,-1.697806 -0.38406,-0.42439 -2.32996,-1.1446 -4.79249,-1.77378 l -2.08,-0.53145 -2.72,0.004 c -4.018068,0.007 -5.694372,0.56033 -7.056979,2.33114 -1.826202,2.373282 -4.553718,3.890404 -8.623023,4.796366 -2.161684,0.481263 -6.022759,0.547854 -8.32,0.143493 z m 7.452436,-4.160216 c 0.507832,-2.069583 0.692519,-2.561713 0.961358,-2.561713 0.255676,0 0.626206,1.04395 0.626206,1.76431 0,0.828474 0.244276,0.700655 0.38367,-0.20076 0.302923,-1.95891 0.608965,-2.06762 1.220123,-0.43341 0.197516,0.52816 0.379281,0.939939 0.403923,0.915073 0.100513,-0.101426 -0.27418,-4.137623 -0.498439,-5.369193 -0.449628,-2.46923 -1.497746,-4.95359 -2.338209,-5.54227 -0.639636,-0.44802 -0.726944,-0.33006 -0.848358,1.14625 -0.142211,1.72919 -0.318465,2.25789 -1.171446,3.51396 l -0.67243,0.9902 0.536499,-0.22416 c 1.09391,-0.45707 1.151166,0.11249 0.266363,2.64966 -0.77758,2.22971 -0.823201,2.821475 -0.117198,1.52018 0.940386,-1.73331 1.129323,-1.24058 0.676445,1.764103 -0.462741,3.07013 -0.173638,3.104413 0.571493,0.06777 z m 0.163195,-3.876423 c -0.116637,-0.18657 -0.121027,-0.40808 -0.01368,-0.69041 0.225982,-0.59438 0.19505,-1.56312 -0.06109,-1.91342 -0.190211,-0.26013 -0.16929,-0.40677 0.158437,-1.11058 0.207671,-0.44598 0.37939,-1.02688 0.381597,-1.29088 0.01682,-2.01216 1.382397,1.23759 1.687823,4.01663 l 0.107334,0.97662 -0.378022,0.1186 c -0.754278,0.23665 -1.701353,0.18303 -1.882391,-0.10656 z m -3.105551,-6.14615 c 0.815661,-0.23147 1.452012,-0.47103 1.414114,-0.53235 -0.08465,-0.13697 -1.988428,-0.7238 -2.05169,-0.63243 -0.025,0.0361 -0.227637,0.31764 -0.450313,0.62564 -0.826402,1.14306 -0.90425,1.10448 1.087889,0.53914 z m 17.232749,14.128731 c -1.42066,-0.752014 -1.494522,-1.159699 -0.595958,-3.289394 l 0.228482,-0.541526 0.958527,0.08692 c 2.190272,0.198607 3.039652,-0.55195 2.134332,-1.886007 l -0.41179,-0.60681 1.21091,0.10236 c 1.25117,0.10577 3.44965,0.54265 3.64189,0.72372 0.0601,0.0566 -0.35045,0.801542 -0.91225,1.655472 -1.03516,1.57342 -1.68805,2.168317 -2.79697,2.548523 -0.308,0.105602 -0.85303,0.50405 -1.21118,0.885441 -0.756125,0.805185 -1.209381,0.870027 -2.245993,0.321305 z M 54.266273,28.430135 c -0.253867,-0.18949 -1.685577,-1.54974 -3.181577,-3.02276 -2.265566,-2.23076 -2.818336,-2.69532 -3.308583,-2.78057 -1.021671,-0.17765 -1.287027,-0.52329 -1.356494,-1.76689 -0.07924,-1.41861 0.130483,-1.7607 1.174338,-1.91549 2.014232,-0.29868 1.905087,-0.30455 2.227639,0.11989 0.166705,0.21937 0.421924,0.61527 0.567154,0.87979 0.555344,1.01148 4.6566,4.06352 5.775946,4.29829 0.554542,0.11631 0.559137,0.0915 -0.182062,0.98358 -0.87769,1.05637 -1.166011,1.70608 -1.193781,2.69009 -0.01329,0.47081 -0.03245,0.8566 -0.04258,0.85731 -0.01013,7.2e-4 -0.226132,-0.15374 -0.48,-0.34324 z m -13.837974,-2.35781 c -1.479329,-0.95151 -1.888775,-1.80702 -1.196264,-2.49953 0.454915,-0.45492 0.802411,-0.43994 1.532661,0.066 l 0.4,0.27716 0.546962,-0.37288 c 0.833501,-0.56823 1.613038,-0.19015 1.613038,0.78232 0,0.48102 -0.826561,1.4064 -1.718859,1.92435 l -0.473935,0.2751 z m 54.799039,-0.0679 c -0.78837,-0.54128 -1.50264,-1.40675 -1.50264,-1.82071 0,-0.29037 0.71964,-1.00907 1.0104,-1.00907 0.12372,0 0.4825,0.17479 0.7973,0.38841 0.46433,0.31511 0.60543,0.34855 0.74763,0.17722 0.37611,-0.45318 1.0937,-0.62272 1.50237,-0.35495 0.99794,0.65388 0.50099,1.71438 -1.35506,2.89171 l -0.41735,0.26474 z M 26.605793,100.8806 c 0.254032,-0.34788 0.540112,-2.006533 0.597796,-3.465953 0.05385,-1.362432 -0.279008,-1.414752 -0.683499,-0.107435 -0.580218,1.875267 -1.064779,2.107553 -4.395395,2.107042 -2.938032,-4.5e-4 -3.42882,-0.147996 -3.892604,-1.170234 -0.366065,-0.806852 -0.410774,-18.169598 -0.04899,-19.026933 0.238589,-0.565402 0.881871,-0.8399 1.972157,-0.841547 0.602135,-9.1e-4 0.91456,-0.21232 0.600558,-0.406383 -0.232847,-0.143908 -9.341693,-0.148662 -9.574147,-0.005 -0.304846,0.188405 -0.02825,0.410435 0.512474,0.41138 0.883432,0.0015 1.698877,0.312552 1.99207,0.75977 0.253817,0.387156 0.282857,1.153593 0.327819,8.651897 0.05118,8.534441 -0.07502,11.596524 -0.504949,12.252686 -0.187205,0.28571 -0.468788,0.40915 -1.175286,0.51524 -1.93232,0.29016 -0.846929,0.45957 3.510648,0.54795 8.123359,0.16477 10.514665,0.11533 10.761353,-0.22249 z M 19.057215,69.64989 c 3.013578,-0.615801 4.907828,-2.453452 5.391396,-5.230303 0.563443,-3.235531 -0.949858,-5.489312 -6.160598,-9.175067 -1.524666,-1.078455 -3.083026,-2.563642 -3.455,-3.292771 -1.163361,-2.280376 0.596943,-4.419217 3.774349,-4.585988 2.54267,-0.133456 4.15342,1.002348 4.527285,3.192369 0.0773,0.452801 0.201333,0.696518 0.354477,0.696518 0.190078,0 0.262569,-0.445654 0.375369,-2.307671 0.163977,-2.70683 0.221113,-2.600006 -1.55385,-2.905189 -8.246756,-1.417931 -13.5816155,4.006543 -9.559411,9.71999 0.967478,1.374281 1.762878,2.11086 4.60755,4.266815 3.339407,2.530913 4.008521,3.41376 3.848613,5.077962 -0.279975,2.913752 -5.479339,4.468138 -7.99253,2.389423 -0.750994,-0.621164 -1.379334,-1.902348 -1.531869,-3.123477 -0.117759,-0.942723 -0.509397,-1.388791 -0.725315,-0.826118 -0.213136,0.555425 -0.315759,5.063938 -0.120617,5.29907 0.852034,1.026638 5.098892,1.442242 8.220151,0.804437 z m 2.10748,-32.116519 c 2.60184,-0.578139 4.167929,-1.477125 6.040014,-3.467163 2.157591,-2.293532 2.901602,-4.360351 2.91279,-8.091563 l 0.0072,-2.4 -0.464353,-1.41677 c -1.146864,-3.49917 -4.098007,-6.31351 -7.615647,-7.26262 -0.912226,-0.24613 -1.850831,-0.28061 -7.639684,-0.28061 -6.5846325,0 -7.8791855,0.11282 -5.6181415,0.48962 1.2729315,0.21213 1.7010175,0.44164 1.8559365,0.995 0.249343,0.89064 0.136577,19.412414 -0.122441,20.110938 -0.266764,0.719411 -0.7595855,1.038592 -1.6090035,1.042086 -0.644838,0.0027 -0.853281,0.129306 -0.638577,0.388008 0.246287,0.296757 11.4950635,0.20346 12.8919105,-0.106926 z m -5.457187,-1.39527 c -0.185454,-0.07494 -0.469537,-0.448382 -0.631296,-0.829859 l -0.294108,-0.693594 -0.06404,-8.973233 c -0.0705,-9.879 -0.119087,-9.35868 0.897651,-9.61387 0.660516,-0.16578 3.255461,0.2196 4.413355,0.65543 2.960344,1.11427 4.676715,3.05238 5.570849,6.29057 0.500448,1.81241 0.509229,6.67806 0.01472,8.155374 -0.845906,2.527079 -2.956433,4.45509 -5.457816,4.985828 -0.981203,0.20819 -3.953328,0.22379 -4.449312,0.02335 z M 234.57914,95.670812 c -0.88257,-0.226669 -1.56218,-0.730703 -1.97444,-1.464344 l -0.4,-0.711821 -0.053,-3.03925 c -0.0555,-3.183213 -0.10068,-3.380484 -0.79873,-3.487279 -0.23556,-0.03604 0.39971,-0.06651 1.41171,-0.06771 1.012,-0.0012 1.68323,0.02833 1.49162,0.06563 -0.68306,0.132965 -0.72491,0.355154 -0.66369,3.523164 0.0483,2.50177 0.1058,3.093772 0.34284,3.532517 0.85455,1.581697 3.36653,1.525751 4.06698,-0.09058 0.19001,-0.438448 0.2766,-1.274801 0.3268,-3.156497 0.0813,-3.046159 -0.0274,-3.637528 -0.69469,-3.781069 -0.25842,-0.05559 0.25014,-0.10107 1.13014,-0.10107 0.88,0 1.384,0.04603 1.12,0.102278 l -0.48,0.102279 -0.0908,3.038791 c -0.0938,3.141839 -0.23624,3.859002 -0.91534,4.609961 -0.71517,0.790844 -2.58172,1.242883 -3.81946,0.924995 z m 25.50556,-0.03915 -0.6,-0.168801 0.0126,-1.144105 0.0126,-1.144106 0.23325,0.657631 c 0.46389,1.307925 1.75688,1.811461 2.74916,1.070619 1.03853,-0.775379 0.74246,-1.79626 -0.91976,-3.171449 -1.48655,-1.229854 -2.01812,-2.118388 -1.88062,-3.143517 0.16766,-1.249999 1.14405,-1.894443 2.86476,-1.890834 1.49316,0.0031 1.53641,0.0376 1.40229,1.11755 -0.0601,0.484 -0.11942,0.748462 -0.13181,0.587692 -0.0818,-1.060828 -1.88118,-1.623587 -2.6698,-0.834965 -0.78546,0.78546 -0.43056,1.44029 1.71297,3.160609 2.89444,2.322975 0.84769,5.925876 -2.7857,4.903676 z m 35,0.114046 c -0.088,-0.03469 -0.358,-0.106737 -0.6,-0.160111 l -0.44,-0.09704 0.0126,-1.156951 0.0126,-1.156952 0.23325,0.657631 c 0.33429,0.942536 0.8391,1.359909 1.65847,1.371218 0.93806,0.01295 1.50731,-0.433209 1.57442,-1.233961 0.0711,-0.848644 -0.1906,-1.251962 -1.51429,-2.333593 -1.6569,-1.353901 -2.14703,-2.51767 -1.57131,-3.730909 0.38681,-0.815144 1.25687,-1.210845 2.65599,-1.207936 1.50432,0.0031 1.54678,0.03672 1.41255,1.11755 -0.0601,0.484 -0.11942,0.748462 -0.13181,0.587692 -0.0818,-1.060828 -1.88118,-1.623587 -2.6698,-0.834965 -0.77018,0.770177 -0.51143,1.337506 1.27627,2.798284 2.23796,1.828704 2.48456,3.916731 0.59338,5.024243 -0.46124,0.270107 -2.12106,0.506111 -2.50238,0.355804 z m -160.24452,-0.26917 c 0.62608,-0.249854 0.63949,-0.340106 0.64207,-4.322297 0.003,-3.958072 -0.006,-4.008951 -0.71755,-4.183813 -0.176,-0.04326 0.508,-0.07622 1.52,-0.07324 1.012,0.003 1.64727,0.0349 1.41171,0.07094 -0.76777,0.117462 -0.79263,0.253323 -0.74047,4.046631 l 0.0488,3.5462 0.31058,0.226849 c 0.3198,0.23358 1.91418,0.314751 2.41412,0.122903 0.14899,-0.05717 0.36806,-0.32717 0.48683,-0.6 l 0.21594,-0.496054 0.006,0.610519 c 0.003,0.335785 -0.0683,0.749785 -0.15937,0.92 l -0.16563,0.309481 -2.83437,-0.01014 c -2.033,-0.0073 -2.72256,-0.05476 -2.43889,-0.16797 z m 11.52,0 c 0.62608,-0.249854 0.63949,-0.340106 0.64207,-4.322297 0.003,-3.958072 -0.006,-4.008951 -0.71755,-4.183813 -0.176,-0.04326 0.472,-0.0772 1.44,-0.07543 0.968,0.0018 1.58,0.03668 1.36,0.07757 -0.22,0.04089 -0.4529,0.157082 -0.51755,0.258211 -0.15361,0.240274 -0.15338,7.647567 2.5e-4,7.888994 0.0648,0.101819 0.36969,0.257325 0.67755,0.34557 0.45305,0.12986 0.19375,0.161262 -1.36025,0.164733 -1.41952,0.0032 -1.81691,-0.03685 -1.52452,-0.15354 z m 11.32452,-0.06043 0.52,-0.226013 v -3.903694 -3.903694 l -1.24,0.06964 c -1.09358,0.06142 -1.28572,0.119982 -1.62717,0.49597 l -0.38717,0.426329 0.10541,-0.64 c 0.058,-0.352 0.10617,-0.712 0.1071,-0.8 0.001,-0.102175 1.38948,-0.16 3.84165,-0.16 h 3.83995 l -0.006,0.88 -0.006,0.88 -0.23295,-0.429013 c -0.27565,-0.50765 -0.46328,-0.573135 -1.83424,-0.64015 l -1.04,-0.05084 -0.0433,3.047636 c -0.0238,1.6762 0.0122,3.4338 0.0802,3.905778 l 0.1235,0.858141 0.55985,0.20205 c 0.50711,0.183019 0.379,0.202607 -1.36016,0.20796 l -1.92,0.0059 z m 12.67548,0.06043 c 0.62605,-0.24984 0.63949,-0.340234 0.64207,-4.317858 l 0.002,-3.77597 -1.24,0.07615 c -1.34198,0.08241 -1.8,0.235443 -1.8,0.601424 0,0.128903 -0.0734,0.23437 -0.16305,0.23437 -0.0897,0 -0.13019,-0.162 -0.09,-0.36 0.0402,-0.198 0.11037,-0.54 0.15602,-0.76 l 0.083,-0.4 h 3.84698 3.84698 l -0.0159,0.48 c -0.009,0.264 -0.0735,0.66 -0.144,0.88 l -0.1281,0.4 -0.016,-0.35437 c -0.0216,-0.478957 -0.36757,-0.62536 -1.73595,-0.734495 l -1.16,-0.09252 v 3.720111 c 0,4.035313 0.024,4.155424 0.88018,4.410708 0.34593,0.103138 -0.0559,0.144066 -1.44018,0.146669 -1.42007,0.0027 -1.81703,-0.03749 -1.52452,-0.154218 z m 11.22595,-0.0017 c 0.5756,-0.211038 0.61857,-0.531991 0.61857,-4.620635 0,-3.703763 -0.007,-3.736632 -0.8,-3.882471 -0.22,-0.04045 0.72811,-0.08335 2.10691,-0.09533 1.37881,-0.01198 2.62081,-0.06549 2.76,-0.118907 0.21042,-0.08075 0.25309,0.04063 0.25309,0.72 0,0.810052 -0.25059,1.143101 -0.34887,0.463677 -0.0601,-0.415616 -0.49623,-0.567923 -1.69113,-0.59061 l -0.84,-0.01595 v 1.605022 c 0,1.88497 -0.0172,1.867326 1.6104,1.646999 l 1.1096,-0.150201 v 0.759648 c 0,0.417805 -0.072,0.804145 -0.16,0.858532 -0.088,0.05439 -0.16,-0.04683 -0.16,-0.224928 0,-0.451639 -0.46877,-0.655072 -1.50948,-0.655072 h -0.89052 v 1.728 c 0,2.033054 0.0486,2.112 1.29891,2.112 1.17412,0 1.40925,-0.09896 1.67262,-0.703946 l 0.21594,-0.496054 0.004,0.56 c 0.002,0.308 -0.0393,0.722 -0.0924,0.92 l -0.0965,0.36 -2.74134,-0.01263 c -1.9595,-0.009 -2.62115,-0.0567 -2.31991,-0.167142 z m 11.81166,-0.02386 c 0.56607,-0.286461 0.61327,-0.618976 0.63096,-4.445781 0.0171,-3.694386 -0.0239,-3.905338 -0.78405,-4.037473 -0.22,-0.03824 0.68112,-0.07934 2.0025,-0.09132 2.87239,-0.02605 3.33132,0.128249 3.8129,1.281954 0.38644,0.925788 0.18189,1.741629 -0.68304,2.724244 l -0.62735,0.712707 1.3417,1.620921 c 1.32924,1.605879 1.62337,1.862329 2.55329,2.226213 l 0.48,0.187827 -1.01582,0.01217 c -1.52077,0.01822 -1.96454,-0.263856 -3.29071,-2.09174 l -1.13347,-1.562269 -0.68,-0.0069 -0.68,-0.0069 v 1.269584 c 0,1.61133 0.15842,2.035039 0.83368,2.229773 0.41135,0.118628 0.1244,0.15442 -1.31368,0.163854 -1.56576,0.01027 -1.78141,-0.01758 -1.44691,-0.186849 z m 3.58883,-4.109488 c 1.16484,-0.44287 1.20724,-2.95598 0.0634,-3.757161 -0.19608,-0.137342 -0.66449,-0.249713 -1.04091,-0.249713 h -0.6844 v 1.988872 1.988872 l 0.36,0.06934 c 0.64094,0.12345 0.89185,0.115701 1.30192,-0.04021 z m 8.08737,4.090284 c 0.71028,-0.256673 0.60691,-0.06201 2.47897,-4.6682 0.88646,-2.181119 1.69149,-3.991494 1.78896,-4.023055 0.10077,-0.03263 0.81877,1.529424 1.66438,3.620962 1.80544,4.465565 1.9878,4.805538 2.7184,5.067782 l 0.56,0.201008 -1.49712,0.01217 c -1.19478,0.0097 -1.48037,-0.03146 -1.41421,-0.203877 0.0456,-0.118828 -0.1447,-0.784828 -0.42288,-1.48 l -0.50579,-1.263951 h -1.41465 -1.41464 l -0.3914,0.96 c -0.47826,1.17302 -0.44937,1.705937 0.10069,1.857724 0.22,0.06071 -0.32,0.112078 -1.2,0.114155 -1.45968,0.0034 -1.55183,-0.01363 -1.05071,-0.194721 z m 5.09109,-3.497158 c -0.0406,-0.11 -0.28233,-0.793813 -0.53712,-1.519584 -0.25479,-0.725772 -0.5077,-1.319772 -0.56202,-1.32 -0.11277,-4.75e-4 -1.10124,2.55557 -1.10124,2.847638 0,0.131256 0.35954,0.191946 1.13712,0.191946 0.84242,0 1.11797,-0.05183 1.06326,-0.2 z m 10.5951,3.541888 c 0.62609,-0.249858 0.63949,-0.340072 0.64207,-4.323463 l 0.002,-3.781576 -1.08,0.07092 c -1.52645,0.100242 -1.72579,0.159194 -1.92317,0.568749 l -0.17517,0.363478 -0.009,-0.48 c -0.005,-0.264 0.03,-0.624 0.0773,-0.8 l 0.0859,-0.32 h 3.83176 3.83175 l 1.1e-4,0.849443 c 8e-5,0.525578 -0.0609,0.811741 -0.15988,0.750557 -0.088,-0.05439 -0.16,-0.200103 -0.16,-0.323813 0,-0.35424 -0.47101,-0.516461 -1.68,-0.578611 l -1.12,-0.05758 -0.043,3.541662 c -0.0479,3.944253 0.0134,4.291804 0.79669,4.517695 0.4055,0.116942 0.0856,0.152767 -1.39368,0.156071 -1.41952,0.0032 -1.81691,-0.03685 -1.52452,-0.15354 z m 25.6,0 c 0.62608,-0.249854 0.63949,-0.340106 0.64207,-4.322297 0.003,-4.025399 6.4e-4,-4.03572 -0.79755,-4.182471 -0.22,-0.04045 0.66431,-0.08335 1.96514,-0.09533 2.69588,-0.02484 3.27536,0.123227 3.79076,0.968583 0.57449,0.94228 0.2877,2.235297 -0.70033,3.157518 -0.22856,0.21334 -0.41557,0.452948 -0.41557,0.532462 0,0.07951 0.58192,0.856268 1.29315,1.726119 1.00826,1.233121 1.47531,1.669703 2.12,1.981695 l 0.82685,0.400148 -0.92514,0.0058 c -1.57806,0.01 -2.21601,-0.441288 -3.78054,-2.674157 l -0.70069,-1 h -0.62241 -0.62241 l 0.0456,1.626065 0.0456,1.626064 0.56,0.201763 c 0.50865,0.183263 0.39129,0.201949 -1.28,0.203794 -1.36878,0.0015 -1.73872,-0.03839 -1.44452,-0.155798 z m 3.92397,-4.341888 c 1.32716,-1.144922 0.48733,-3.8 -1.20197,-3.8 h -0.63748 v 1.988268 c 0,1.759047 0.0323,1.996704 0.28,2.06144 0.65343,0.17076 1.16747,0.08845 1.55945,-0.249708 z m 20.55603,4.343989 c 0.62612,-0.253195 0.63949,-0.342984 0.64207,-4.311989 0.003,-4.017186 -0.0176,-4.124325 -0.78955,-4.183025 -0.2781,-0.02115 4.44599,-0.210509 5.21447,-0.209018 0.0124,2.4e-5 -0.0156,0.386837 -0.0622,0.859585 l -0.0847,0.859543 -0.20015,-0.47602 c -0.21883,-0.520438 -0.68094,-0.683065 -1.94098,-0.683065 h -0.70559 l 0.0456,1.64 0.0456,1.64 0.72,-0.0021 c 0.396,-0.0012 1.008,-0.04603 1.36,-0.0997 l 0.64,-0.09758 -0.0558,0.876118 -0.0558,0.876118 -0.30189,-0.496416 -0.30189,-0.496416 h -1.04235 -1.04235 v 1.668572 c 0,2.056217 0.0799,2.171428 1.50663,2.171428 1.03914,0 1.3438,-0.165048 1.59282,-0.8629 0.1844,-0.516784 0.24934,-0.204206 0.13045,0.627967 l -0.11357,0.794933 -2.79817,0.03196 c -1.99398,0.02277 -2.6845,-0.014 -2.40268,-0.127971 z m 11.8679,-0.0044 c 0.58719,-0.215198 0.61197,-0.395846 0.61444,-4.479985 0.002,-3.85412 -0.002,-3.876165 -0.79782,-4.022471 -0.22,-0.04045 0.464,-0.07354 1.52,-0.07354 1.056,0 1.74,0.03309 1.52,0.07354 -0.79356,0.1459 -0.8,0.177312 -0.8,3.902471 v 3.500409 l 0.32,0.32 c 0.24791,0.247906 0.53333,0.32 1.26691,0.32 1.20756,0 1.43995,-0.09597 1.70462,-0.703946 l 0.21594,-0.496054 0.006,0.610519 c 0.003,0.335785 -0.0683,0.749785 -0.15937,0.92 l -0.16563,0.309481 -2.83437,-0.01263 c -2.02765,-0.009 -2.71387,-0.05679 -2.41099,-0.167792 z m 22.6921,0.0023 c 0.62608,-0.249854 0.63949,-0.340106 0.64207,-4.322297 0.003,-4.025399 6.4e-4,-4.03572 -0.79755,-4.182471 -0.22,-0.04045 0.392,-0.07354 1.36,-0.07354 0.968,0 1.59812,0.03119 1.40026,0.0693 -0.46802,0.09017 -0.54403,0.445927 -0.48717,2.280047 l 0.0469,1.51293 1.49515,-1.646353 c 1.08373,-1.193321 1.47309,-1.730714 1.41498,-1.95293 l -0.0802,-0.306577 1.38502,0.01638 c 0.98091,0.0116 1.23865,0.05129 0.88337,0.136039 -0.68629,0.163704 -1.19473,0.558314 -2.76425,2.145388 l -1.3459,1.360951 0.52344,0.610622 c 1.55949,1.819248 3.66671,3.806845 4.40836,4.158115 l 0.8,0.378905 -1.3094,-0.05613 c -1.61646,-0.06929 -1.83941,-0.219869 -3.92313,-2.649714 l -1.48747,-1.734554 -0.0465,1.696998 c -0.0584,2.131279 -0.009,2.327566 0.64357,2.536665 0.43051,0.138023 0.19767,0.16876 -1.31703,0.173857 -1.36542,0.0046 -1.73799,-0.03452 -1.44452,-0.151636 z m 11.95192,-0.05513 c 0.63532,-0.276359 0.59296,-0.193867 2.46857,-4.806758 0.85875,-2.112 1.6479,-3.84 1.75368,-3.84 0.10577,0 0.90896,1.764 1.78487,3.92 1.66666,4.102429 1.82562,4.391361 2.60548,4.735598 l 0.48,0.211877 -1.49712,0.0063 c -1.26593,0.0053 -1.48291,-0.03076 -1.40512,-0.233478 0.0506,-0.131857 -0.128,-0.815857 -0.39689,-1.52 l -0.48888,-1.280259 h -1.40072 -1.40071 l -0.42528,1.083962 c -0.53321,1.359054 -0.53145,1.570595 0.0147,1.770073 0.34977,0.127748 0.12831,0.162008 -1.08,0.167071 l -1.52,0.0064 z m 5.0126,-3.430488 c 0,-0.264039 -1.00128,-2.896284 -1.10136,-2.895329 -0.0907,8.65e-4 -1.13864,2.703842 -1.13864,2.93685 0,0.05621 0.504,0.102209 1.12,0.102209 0.616,0 1.12,-0.06468 1.12,-0.14373 z m 9.14143,3.492295 c 0.57393,-0.22178 0.61857,-0.549292 0.61857,-4.537984 0,-3.625944 -0.0443,-3.846112 -0.8,-3.977473 -0.22,-0.03824 0.54931,-0.07934 1.70958,-0.09132 1.16028,-0.01198 2.28736,0.0458 2.50464,0.128409 1.30411,0.495821 1.45199,2.009674 0.3155,3.229762 l -0.39119,0.419961 0.37407,0.09388 c 1.40215,0.351918 2.18178,2.424618 1.36686,3.633883 -0.68975,1.023513 -1.19864,1.18799 -3.79946,1.22802 -1.71146,0.02634 -2.20946,-0.007 -1.89857,-0.127143 z m 4.33226,-0.790433 c 0.35551,-0.439037 0.38399,-1.745127 0.0521,-2.387019 -0.39924,-0.77204 -1.15177,-1.291113 -1.87179,-1.291113 h -0.6415 l 0.0538,1.853207 c 0.0473,1.630597 0.0922,1.881958 0.37377,2.092558 0.46417,0.347186 1.66366,0.189334 2.03369,-0.267633 z m -0.81141,-4.463995 c 1.07429,-0.86991 -0.1332,-3.475593 -1.38756,-2.994251 -0.24539,0.09417 -0.36035,2.961147 -0.12805,3.193447 0.21869,0.21869 1.15083,0.09618 1.51561,-0.199196 z M 133.5647,74.214677 v -0.32 h 102.08 102.08 v 0.32 0.32 h -102.08 -102.08 z m 1.48,-11.524986 c -0.32229,-0.129542 -0.36,-0.255184 -0.36,-1.1993 0,-0.662323 0.0595,-1.017817 0.16,-0.955714 0.088,0.05439 0.16,0.280175 0.16,0.501751 0,1.60501 2.93065,1.808839 3.27786,0.227978 0.15034,-0.684489 -0.20952,-1.241941 -1.61206,-2.497206 -1.44098,-1.289671 -1.91133,-2.132762 -1.74363,-3.125394 0.21753,-1.287551 1.68988,-2.067533 3.44671,-1.825907 0.93768,0.128964 1.03124,0.270733 0.87165,1.320744 l -0.11521,0.758034 -0.18266,-0.559999 c -0.37696,-1.155685 -1.98196,-1.424019 -2.70722,-0.45261 -0.43534,0.583088 -0.25698,1.186473 0.55921,1.891848 2.49983,2.160402 2.79447,2.601875 2.64161,3.958012 -0.16085,1.427114 -1.12855,2.128737 -2.91377,2.112608 -0.61737,-0.0056 -1.28449,-0.07526 -1.48249,-0.154845 z m 38.59405,-0.08223 c -2.66078,-0.975218 -3.61421,-4.629953 -1.84499,-7.072294 1.38422,-1.910852 4.89715,-2.343027 6.97094,-0.85759 2.49439,1.786716 2.01575,6.253273 -0.82517,7.7002 -0.96456,0.491268 -3.25355,0.613512 -4.30078,0.229684 z m 3.55605,-0.49779 c 1.75037,-0.830606 2.17486,-4.642476 0.71749,-6.443096 -0.7826,-0.96693 -1.21842,-1.196579 -2.39271,-1.260798 -1.99828,-0.109282 -3.05952,1.12778 -3.07106,3.57986 -0.0144,3.060119 2.45912,5.209362 4.74628,4.124034 z m 12.26309,0.457091 c -2.0054,-0.713038 -2.99118,-2.12279 -2.98729,-4.272085 0.006,-3.213957 2.57819,-4.909883 6.66672,-4.395258 l 1.54738,0.19477 v 1.109687 c 0,0.699048 -0.0592,1.073094 -0.16,1.010801 -0.088,-0.05439 -0.16,-0.232235 -0.16,-0.395219 0,-0.821949 -1.57961,-1.505025 -3.28161,-1.419078 -1.9622,0.09909 -3.00428,1.24429 -3.02697,3.326539 -0.0289,2.648106 1.39081,4.391358 3.75048,4.605326 1.44721,0.131228 1.5981,-0.02269 1.5981,-1.630111 0,-1.621056 -0.0673,-1.821857 -0.70395,-2.098986 -0.45535,-0.198228 -0.35166,-0.215933 1.26395,-0.215802 l 1.76,1.44e-4 -0.44,0.238703 -0.44,0.238704 v 1.671202 1.671201 l -0.43285,0.283689 c -0.65559,0.429668 -3.82241,0.478106 -4.95396,0.07577 z m 33.22577,0.147366 c -3.14752,-1.027639 -4.12788,-5.355988 -1.73298,-7.651255 1.72645,-1.654628 5.19148,-1.694528 6.91426,-0.07962 2.13079,1.997388 1.40022,6.077069 -1.34024,7.484156 -0.6181,0.317362 -3.1304,0.478731 -3.84104,0.246716 z m 3.08618,-0.55883 c 1.12255,-0.478312 1.71486,-1.671774 1.71486,-3.455308 0,-2.726003 -1.28523,-4.326127 -3.47363,-4.324714 -2.08178,0.0013 -3.1025,1.691418 -2.73114,4.522137 0.3321,2.531423 2.50115,4.105286 4.48991,3.257885 z m 12.48629,0.411038 c -2.17333,-0.773118 -3.22791,-2.362089 -3.05053,-4.596364 0.24434,-3.077853 2.67269,-4.570739 6.6391,-4.081558 l 1.64,0.202262 -0.0113,0.822001 c -0.006,0.4521 -0.0731,0.966 -0.14875,1.142 l -0.13751,0.32 -0.0112,-0.347692 c -0.0468,-1.446336 -3.46677,-2.212797 -5.08759,-1.14019 -0.94849,0.627676 -1.24366,1.360565 -1.24366,3.087882 0,1.29799 0.0469,1.524737 0.4759,2.29924 0.75492,1.363005 2.01977,2.103491 3.58422,2.09831 1.13765,-0.0038 1.15785,-0.03903 1.10577,-1.930635 l -0.0459,-1.666915 -0.56,-0.190969 c -0.49636,-0.169265 -0.35088,-0.190843 1.28,-0.189858 1.37129,8.28e-4 1.73926,0.04132 1.44452,0.158939 -0.59159,0.236089 -0.63941,0.398881 -0.64207,2.185849 l -0.002,1.64396 -0.44,0.182694 c -0.8059,0.334622 -3.84898,0.335285 -4.78857,10e-4 z m -92.0917,0.01546 c 0.51085,-0.09842 0.53573,-0.330437 0.48538,-4.527118 l -0.0451,-3.759999 -0.56,-0.19097 c -0.7701,-0.262615 3.21575,-0.290248 4.25138,-0.02947 2.60418,0.65574 1.95163,4.264385 -0.8522,4.712736 -0.46163,0.07382 -0.67918,0.05081 -0.67918,-0.07184 0,-0.09925 0.162,-0.182051 0.36,-0.184007 1.163,-0.01149 1.86205,-1.964882 1.14036,-3.186599 -0.32287,-0.546582 -1.17449,-1.015821 -1.70634,-0.940188 l -0.35402,0.05034 -0.043,3.621805 c -0.0483,4.071681 0.0106,4.405108 0.79492,4.501851 0.29042,0.03582 -0.29996,0.06685 -1.31196,0.06895 -1.012,0.0021 -1.67812,-0.02737 -1.48027,-0.06549 z m 11.80027,8.25e-4 c 0.67768,-0.158698 0.72012,-0.41176 0.71755,-4.278523 -0.001,-2.029181 -0.0554,-3.768624 -0.12,-3.865428 -0.0647,-0.09681 -0.33355,-0.257479 -0.59755,-0.357054 -0.38626,-0.145688 -0.0113,-0.173635 1.92,-0.143105 2.07424,0.03279 2.47601,0.08186 2.96,0.361507 1.21746,0.703447 1.39864,2.16859 0.42695,3.452543 -0.27882,0.368423 -0.57261,0.757656 -0.65287,0.864963 -0.0992,0.132671 0.0989,0.496223 0.61915,1.136128 1.65909,2.040675 2.27441,2.611554 3.00022,2.783516 0.40884,0.09687 0.2506,0.128416 -0.70788,0.141133 l -1.23444,0.01638 -0.5673,-0.498095 c -0.31201,-0.273952 -0.96747,-1.065952 -1.45658,-1.76 l -0.88929,-1.261905 h -0.70898 -0.70898 l 0.0119,0.92 c 0.007,0.506 0.0605,1.244 0.12,1.64 l 0.10814,0.72 0.56,0.09894 c 0.308,0.05441 -0.268,0.100063 -1.28,0.10144 -1.012,0.0014 -1.696,-0.03122 -1.52,-0.07243 z m 3.83283,-4.147332 c 0.69741,-0.26762 0.99744,-2.317273 0.45451,-3.105009 -0.5021,-0.728501 -1.21369,-1.039045 -1.94355,-0.848183 l -0.34379,0.0899 v 1.874672 c 0,1.03107 0.048,1.922672 0.10667,1.981339 0.13452,0.13452 1.38088,0.139775 1.72616,0.0073 z m 39.75101,1.192327 0.10872,-0.532938 1.82023,-0.04549 c 1.00113,-0.02502 1.88755,0.02183 1.96983,0.104106 0.18359,0.18359 -0.0134,0.244432 -1.88262,0.581463 -0.792,0.142802 -1.5941,0.297025 -1.78244,0.342717 -0.31264,0.07585 -0.33298,0.03671 -0.23372,-0.44986 z M 133.5647,40.934678 v -0.32 h 102.08 102.08 v 0.32 0.32 h -102.08 -102.08 z m 2.48,-11.030049 c -0.88,-0.05939 -1.44053,-0.121922 -1.24563,-0.138965 0.61974,-0.05419 0.68563,-0.477123 0.68563,-4.400879 0,-3.9932 -0.003,-4.00637 -0.8,-4.15299 -0.22,-0.0405 0.82687,-0.0833 2.32638,-0.0953 3.06577,-0.0245 4.21027,0.17272 5.27161,0.90838 1.95056,1.35203 2.09515,4.76848 0.28064,6.63086 -1.13899,1.169036 -2.84867,1.496598 -6.51863,1.248924 z m 3.61142,-0.492117 c 1.61991,-0.307207 2.46891,-1.268667 2.64997,-3.000977 0.20567,-1.96774 -0.5458,-3.527 -2.04974,-4.25309 -0.92088,-0.44459 -2.26871,-0.68445 -2.92313,-0.5202 l -0.40852,0.10253 v 3.48637 c 0,3.78366 0.0294,3.92331 0.88018,4.17697 0.65387,0.194952 0.86255,0.195899 1.85124,0.0084 z m 44.86858,0.482166 c -0.88,-0.05391 -1.4524,-0.111971 -1.272,-0.129014 0.68373,-0.06459 0.712,-0.234644 0.712,-4.283399 0,-4.11757 5.7e-4,-4.1145 -0.8,-4.27923 -0.22,-0.0453 1.04,-0.0677 2.8,-0.0497 3.48853,0.0355 3.99475,0.14528 5.14191,1.11508 2.09912,1.77456 1.50536,5.84522 -1.0404,7.132769 -1.23281,0.623508 -2.12423,0.702899 -5.54151,0.493534 z m 4.67888,-0.819373 c 1.14165,-0.55173 1.64216,-1.56661 1.63956,-3.3245 -0.004,-2.3824 -1.48319,-3.90545 -4.01744,-4.13524 -1.44627,-0.13115 -1.42256,-0.18654 -1.41178,3.2987 0.012,3.87239 0.0704,4.20118 0.79321,4.460351 0.72778,0.260975 2.12612,0.121296 2.99645,-0.299311 z m 27.56716,-2.29848 c -1.79502,-1.80281 -3.27477,-3.26081 -3.28833,-3.24 -0.0136,0.0208 0.0174,1.30491 0.0688,2.85353 0.1003,3.021572 0.17019,3.272286 0.94518,3.390852 0.23556,0.03604 -0.32771,0.06779 -1.25171,0.07057 -0.924,0.0028 -1.464,-0.04087 -1.2,-0.09699 l 0.48,-0.102036 0.10263,-0.95903 c 0.0565,-0.52747 0.11045,-2.48904 0.12,-4.35904 0.01,-1.87 0.0704,-3.4 0.13512,-3.4 0.0648,0 1.61687,1.53 3.44913,3.4 l 3.33137,3.4 -0.0876,-3.02175 c -0.0923,-3.18383 -0.14422,-3.39491 -0.86238,-3.50478 -0.23556,-0.036 0.29171,-0.068 1.17171,-0.0709 0.88,-0.003 1.456,0.03 1.28,0.0732 -0.64309,0.15807 -0.71998,0.357 -0.72049,1.86381 -8.1e-4,2.42379 -0.20307,6.980413 -0.30984,6.980413 -0.055,0 -1.56861,-1.475033 -3.36363,-3.277853 z m 11.09033,3.118923 c -0.51316,-0.207049 -0.58125,-0.416976 -0.45722,-1.409683 l 0.113,-0.90441 0.21382,0.62196 c 0.29955,0.87134 0.72068,1.233086 1.54347,1.325827 1.00485,0.11326 1.73056,-0.490007 1.73056,-1.438567 v -0.65535 l -1.58917,-1.53042 c -1.2946,-1.24674 -1.60931,-1.64165 -1.69781,-2.13043 -0.36725,-2.02838 1.28048,-3.2333 3.74698,-2.74 l 0.5,0.1 -0.004,0.98 -0.004,0.98 -0.29621,-0.65219 c -0.6865,-1.5115 -2.89676,-1.26657 -2.89676,0.32101 0,0.3756 0.17754,0.63286 0.83122,1.2044 1.86421,1.63 2.33324,2.16061 2.51872,2.84943 0.50374,1.87072 -0.73637,3.249051 -2.90357,3.227211 -0.5535,-0.0056 -1.161,-0.07253 -1.35,-0.148788 z M 149.9647,29.78262 c 0.67922,-0.15906 0.72,-0.40706 0.72,-4.378935 0,-4.03483 -0.002,-4.04517 -0.8,-4.19189 -0.22,-0.0405 0.8857,-0.0833 2.45712,-0.0953 2.54506,-0.0194 2.84651,0.006 2.76,0.2313 -0.0534,0.1392 -0.10168,0.5172 -0.10726,0.84 l -0.0101,0.58691 -0.15783,-0.39548 c -0.22574,-0.56564 -0.41185,-0.63932 -1.62189,-0.64207 l -1.08,-0.002 v 1.6 1.6 h 1.19056 c 0.6548,0 1.23505,-0.072 1.28944,-0.16 0.22625,-0.36608 0.31665,-0.10656 0.26313,0.75539 l -0.0569,0.91583 -0.22214,-0.42397 c -0.18492,-0.35294 -0.3693,-0.44236 -1.10053,-0.53372 -1.35743,-0.1696 -1.36358,-0.16216 -1.36358,1.65087 0,1.83219 0.12787,2.09882 1.06696,2.224781 0.9087,0.121882 1.78748,-0.191651 1.91046,-0.681611 0.15431,-0.61484 0.37111,-0.44969 0.27888,0.21243 -0.046,0.33 -0.11118,0.690003 -0.14492,0.800003 -0.0463,0.150872 -0.74053,0.195441 -2.82636,0.18144 -1.52076,-0.01021 -2.62102,-0.05228 -2.44502,-0.0935 z m 13.6,-0.0037 c 0.71161,-0.174916 0.72,-0.224129 0.72,-4.223815 v -3.82041 h -1.20727 c -1.08442,0 -1.24929,0.042 -1.62009,0.41282 l -0.41282,0.41282 0.11506,-0.77282 c 0.0633,-0.42505 0.12632,-0.77282 0.14009,-0.77282 0.0138,0 1.73503,0.0217 3.82503,0.0482 l 3.8,0.0482 v 0.80123 c 0,0.4934 -0.0615,0.76323 -0.16,0.70233 -0.088,-0.0544 -0.16,-0.19108 -0.16,-0.30376 0,-0.34172 -0.75716,-0.57624 -1.86042,-0.57624 h -1.04536 l 0.0529,3.73573 c 0.0569,4.020514 0.0917,4.186442 0.9046,4.310802 0.23556,0.03604 -0.43571,0.06796 -1.49171,0.07094 -1.056,0.003 -1.776,-0.02998 -1.6,-0.07324 z m 33.63894,-0.06295 c 0.6363,-0.183762 0.66431,-0.238081 2.61076,-5.062752 0.82577,-2.04682 1.56792,-3.69931 1.64923,-3.67221 0.0813,0.0271 0.87532,1.81987 1.76446,3.98392 1.84329,4.486346 1.89968,4.587473 2.6577,4.765645 0.42453,0.09979 0.18158,0.13531 -1.01053,0.14775 -1.08332,0.0113 -1.53648,-0.03696 -1.46302,-0.155822 0.13075,-0.21156 -0.67243,-2.462883 -0.96541,-2.706033 -0.12597,-0.10455 -0.71889,-0.15673 -1.46323,-0.12877 l -1.25143,0.047 -0.43939,1.12 c -0.51266,1.306762 -0.50803,1.546563 0.0328,1.697039 0.22225,0.06184 -0.2745,0.111739 -1.12084,0.112585 -1.20576,0.0012 -1.41272,-0.02947 -1.00106,-0.148352 z m 5.00106,-3.485002 c 0,-0.36015 -1.02083,-2.89764 -1.12003,-2.78407 -0.0614,0.0703 -0.29608,0.6318 -0.52151,1.2478 -0.22543,0.616 -0.46001,1.246 -0.52129,1.4 -0.0998,0.25085 0.007,0.28 1.02571,0.28 0.62542,0 1.13712,-0.0647 1.13712,-0.14373 z m 36.60862,3.549686 c 0.20588,-0.03936 0.43545,-0.246248 0.52,-0.468627 0.18496,-0.486489 0.19871,-7.414989 0.0153,-7.704109 -0.0722,-0.11374 -0.34105,-0.26955 -0.59755,-0.34625 -0.33526,-0.10026 0.0284,-0.14267 1.29364,-0.15086 1.51727,-0.01 1.70483,0.0165 1.36,0.19062 l -0.4,0.20201 -0.0362,1.75563 -0.0361,1.75563 1.51614,-1.58545 c 1.44389,-1.50989 1.76207,-2.04865 1.31615,-2.22858 -0.11,-0.0444 0.52,-0.0814 1.4,-0.0822 l 1.6,-0.001 -0.77951,0.23939 c -0.84369,0.25909 -3.99997,3.10592 -3.90645,3.52345 0.0615,0.27474 3.20909,3.62945 3.89919,4.15581 0.30036,0.2291 0.81627,0.517238 1.14644,0.640303 l 0.60033,0.223755 -1.36,-0.04337 c -1.62481,-0.05182 -1.7913,-0.152014 -3.46051,-2.082556 -0.62728,-0.72549 -1.327,-1.53507 -1.55494,-1.79907 l -0.41444,-0.48 -0.005,1.94041 c -0.005,2.060271 0.0435,2.204319 0.79494,2.342473 0.22,0.04045 -0.428,0.07354 -1.44,0.07354 -1.012,0 -1.67412,-0.03171 -1.47138,-0.07047 z m 14.43138,-0.0039 c 0.22,-0.04089 0.4529,-0.157082 0.51755,-0.258211 0.0647,-0.101128 0.11865,-1.921052 0.12,-4.044282 0.003,-4.11159 0.001,-4.11937 -0.79755,-4.25871 -0.22,-0.0384 0.87809,-0.0993 2.4402,-0.13533 l 2.8402,-0.0655 -0.0191,0.4 c -0.0255,0.53285 -0.25828,1.43277 -0.28234,1.09143 -0.0398,-0.5649 -0.47784,-0.77143 -1.63615,-0.77143 h -1.11437 l 0.0458,1.56 0.0458,1.56 1.07699,0.0472 c 0.59234,0.026 1.22333,-0.0311 1.40219,-0.1268 l 0.32522,-0.17405 -0.10443,0.92681 c -0.10644,0.94479 -0.21997,1.32312 -0.21997,0.73306 0,-0.51531 -0.38211,-0.70705 -1.47025,-0.73776 l -1.00975,-0.0285 -0.0464,1.31312 c -0.0659,1.86727 0.0824,2.33115 0.80352,2.512158 0.98608,0.247524 1.91056,-0.04454 2.23386,-0.705718 0.30114,-0.61587 0.36313,-0.38946 0.18628,0.680443 l -0.0992,0.6 -2.81906,-0.02179 c -1.55049,-0.01198 -2.63907,-0.05524 -2.41907,-0.09613 z M 133.5647,7.8146714 v -0.32 h 102.08 102.08 v 0.32 0.32 h -102.08 -102.08 z"
       id="path6" />
  </g>
</svg>
