<?xml version="1.0" standalone="no"?>
<!DOCTYPE svg PUBLIC "-//W3C//DTD SVG 20010904//EN"
 "http://www.w3.org/TR/2001/REC-SVG-20010904/DTD/svg10.dtd">
<svg version="1.0" xmlns="http://www.w3.org/2000/svg"
 width="465.000000pt" height="465.000000pt" viewBox="0 0 465.000000 465.000000"
 preserveAspectRatio="xMidYMid meet">
<metadata>
Created by potrace 1.14, written by Peter Selinger 2001-2017
</metadata>
<g transform="translate(0.000000,465.000000) scale(0.100000,-0.100000)"
fill="#000000" stroke="none">
<path d="M115 4128 c-35 -19 -66 -52 -86 -90 -18 -36 -19 -85 -19 -1713 0
-1625 1 -1677 19 -1713 22 -42 43 -63 88 -86 29 -15 222 -16 2213 -16 1593 0
2187 3 2203 11 32 17 77 60 93 91 21 41 21 3385 0 3426 -16 31 -61 74 -93 91
-31 16 -4389 15 -4418 -1z m1300 -1181 c33 -9 102 -38 154 -63 73 -36 110 -62
166 -118 81 -80 121 -145 162 -261 26 -75 28 -90 27 -245 0 -155 -1 -169 -27
-236 -43 -114 -75 -164 -161 -249 -87 -87 -167 -135 -286 -173 -112 -36 -186
-43 -505 -49 -343 -6 -369 -3 -363 45 2 23 9 28 43 36 85 18 110 31 127 66 16
32 18 80 18 560 0 614 5 582 -95 615 -33 11 -66 24 -72 28 -14 9 -18 49 -6 61
4 4 176 6 383 4 316 -3 384 -7 435 -21z m1837 -442 c425 -579 417 -570 430
-557 6 6 8 153 6 403 -3 337 -6 399 -19 430 -22 48 -59 75 -127 94 -78 21 -87
28 -87 61 l0 29 280 0 280 0 0 -30 c0 -28 -4 -31 -75 -55 -92 -31 -96 -34
-118 -73 -15 -29 -17 -86 -22 -635 -5 -583 -6 -604 -24 -618 -11 -8 -23 -14
-27 -14 -38 0 -88 61 -464 569 -224 303 -411 551 -416 551 -13 0 -12 -797 2
-859 19 -88 42 -112 141 -144 50 -16 89 -34 92 -44 11 -28 -3 -50 -36 -57 -41
-8 -476 -6 -508 3 -27 7 -39 43 -21 65 6 7 40 21 75 30 73 20 108 51 126 111
9 28 14 168 17 450 6 496 1 535 -71 601 -28 26 -65 47 -100 58 -79 25 -104 54
-74 84 9 9 64 12 207 10 l195 -3 338 -460z"/>
<path d="M1013 2880 l-23 -9 0 -561 c0 -482 2 -565 15 -590 26 -50 90 -73 203
-72 229 1 382 128 449 372 26 94 25 370 0 454 -24 78 -76 180 -120 235 -47 60
-149 128 -227 152 -73 23 -261 35 -297 19z"/>
</g>
</svg>
