<?xml version="1.0" encoding="UTF-8" standalone="no"?>
<!DOCTYPE svg PUBLIC "-//W3C//DTD SVG 1.1//EN"
 "http://www.w3.org/Graphics/SVG/1.1/DTD/svg11.dtd">
<!-- Generated by graphviz version 8.0.5 (20230430.1635)
 -->
<!-- Pages: 1 -->
<svg width="606pt" height="442pt"
 viewBox="0.00 0.00 606.04 441.50" xmlns="http://www.w3.org/2000/svg" xmlns:xlink="http://www.w3.org/1999/xlink">
<g id="graph0" class="graph" transform="scale(1 1) rotate(0) translate(4 437.5)">
<polygon fill="white" stroke="none" points="-4,4 -4,-437.5 602.04,-437.5 602.04,4 -4,4"/>
<!-- LexicalEntry -->
<g id="node1" class="node">
<title>LexicalEntry</title>
<polygon fill="none" stroke="black" stroke-width="2" points="356.16,-433.5 237.41,-433.5 237.41,-397.5 356.16,-397.5 356.16,-433.5"/>
<text text-anchor="middle" x="296.79" y="-407.75" font-family="Times,serif" font-size="20.00">LexicalEntry</text>
</g>
<!-- LexicalConcept -->
<g id="node2" class="node">
<title>LexicalConcept</title>
<polygon fill="none" stroke="black" stroke-width="2" points="204.41,-234.75 63.16,-234.75 63.16,-198.75 204.41,-198.75 204.41,-234.75"/>
<text text-anchor="middle" x="133.79" y="-209" font-family="Times,serif" font-size="20.00">LexicalConcept</text>
</g>
<!-- LexicalEntry&#45;&gt;LexicalConcept -->
<g id="edge1" class="edge">
<title>LexicalEntry&#45;&gt;LexicalConcept</title>
<path fill="none" stroke="black" stroke-width="2" stroke-dasharray="5,2" d="M283,-396.78C266.19,-375.29 236.8,-338.04 210.79,-306.75 193.43,-285.86 173.34,-262.68 158.03,-245.2"/>
<polygon fill="black" stroke="black" stroke-width="2" points="159.86,-242.84 150.63,-237.64 154.6,-247.46 159.86,-242.84"/>
<text text-anchor="start" x="225.79" y="-311.3" font-family="Times,serif" font-size="16.00"> </text>
<text text-anchor="start" x="229.54" y="-311.3" font-family="Times,serif" font-style="italic" font-size="16.00">evokes</text>
<text text-anchor="start" x="270.79" y="-311.3" font-family="Times,serif" font-size="16.00"> </text>
</g>
<!-- LexicalSense -->
<g id="node3" class="node">
<title>LexicalSense</title>
<polygon fill="none" stroke="black" stroke-width="2" points="279.66,-36 157.91,-36 157.91,0 279.66,0 279.66,-36"/>
<text text-anchor="middle" x="218.79" y="-10.25" font-family="Times,serif" font-size="20.00">LexicalSense</text>
</g>
<!-- LexicalEntry&#45;&gt;LexicalSense -->
<g id="edge5" class="edge">
<title>LexicalEntry&#45;&gt;LexicalSense</title>
<path fill="none" stroke="black" stroke-width="2" stroke-dasharray="5,2" d="M299.42,-396.56C305.8,-348.27 318.99,-212.15 282.79,-108 274.82,-85.07 258.91,-62.9 244.94,-46.42"/>
<polygon fill="black" stroke="black" stroke-width="2" points="247.83,-44.13 238.59,-38.94 242.57,-48.76 247.83,-44.13"/>
<text text-anchor="start" x="305.79" y="-211.93" font-family="Times,serif" font-size="16.00"> </text>
<text text-anchor="start" x="309.54" y="-211.93" font-family="Times,serif" font-style="italic" font-size="16.00">sense</text>
<text text-anchor="start" x="343.29" y="-211.93" font-family="Times,serif" font-size="16.00"> </text>
</g>
<!-- LexicalForm -->
<g id="node4" class="node">
<title>LexicalForm</title>
<polygon fill="none" stroke="black" stroke-width="2" points="580.16,-234.75 461.41,-234.75 461.41,-198.75 580.16,-198.75 580.16,-234.75"/>
<text text-anchor="middle" x="520.79" y="-209" font-family="Times,serif" font-size="20.00">LexicalForm</text>
</g>
<!-- LexicalEntry&#45;&gt;LexicalForm -->
<g id="edge7" class="edge">
<title>LexicalEntry&#45;&gt;LexicalForm</title>
<path fill="none" stroke="black" stroke-width="2" stroke-dasharray="5,2" d="M317.06,-396.69C356.69,-361.88 444.6,-284.67 490.91,-243.99"/>
<polygon fill="black" stroke="black" stroke-width="2" points="493.2,-245.89 498.4,-236.66 488.58,-240.63 493.2,-245.89"/>
<text text-anchor="start" x="415.79" y="-311.3" font-family="Times,serif" font-size="16.00"> </text>
<text text-anchor="start" x="419.54" y="-311.3" font-family="Times,serif" font-style="italic" font-size="16.00">canonicalForm</text>
<text text-anchor="start" x="518.54" y="-311.3" font-family="Times,serif" font-size="16.00"> </text>
</g>
<!-- LexicalConcept&#45;&gt;LexicalEntry -->
<g id="edge2" class="edge">
<title>LexicalConcept&#45;&gt;LexicalEntry</title>
<path fill="none" stroke="black" stroke-width="2" stroke-dasharray="5,2" d="M126.5,-235.64C118.52,-258.3 108.95,-297.76 125.79,-325.5 147.32,-360.97 188.1,-382.96 224.44,-396.21"/>
<polygon fill="black" stroke="black" stroke-width="2" points="223.97,-400.43 234.56,-400.37 226.24,-393.81 223.97,-400.43"/>
<text text-anchor="start" x="125.79" y="-311.3" font-family="Times,serif" font-size="16.00"> </text>
<text text-anchor="start" x="129.54" y="-311.3" font-family="Times,serif" font-style="italic" font-size="16.00">isEvokedBy</text>
<text text-anchor="start" x="203.04" y="-311.3" font-family="Times,serif" font-size="16.00"> </text>
</g>
<!-- LexicalConcept&#45;&gt;LexicalSense -->
<g id="edge3" class="edge">
<title>LexicalConcept&#45;&gt;LexicalSense</title>
<path fill="none" stroke="black" stroke-width="2" stroke-dasharray="5,2" d="M82.8,-197.91C37.19,-178.99 -18.82,-146.53 6.79,-108 37.32,-62.07 96.64,-39.8 144.78,-29.02"/>
<polygon fill="black" stroke="black" stroke-width="2" points="146.32,-31.86 155.39,-26.4 144.89,-25.01 146.32,-31.86"/>
<text text-anchor="start" x="6.79" y="-112.55" font-family="Times,serif" font-size="16.00"> </text>
<text text-anchor="start" x="10.54" y="-112.55" font-family="Times,serif" font-style="italic" font-size="16.00">lexicalizedSense</text>
<text text-anchor="start" x="114.04" y="-112.55" font-family="Times,serif" font-size="16.00"> </text>
</g>
<!-- LexicalSense&#45;&gt;LexicalEntry -->
<g id="edge6" class="edge">
<title>LexicalSense&#45;&gt;LexicalEntry</title>
<path fill="none" stroke="black" stroke-width="2" stroke-dasharray="5,2" d="M239.43,-36.82C271.79,-66.44 332.65,-129.46 350.79,-198.75 368.19,-265.24 335.28,-343.58 313.62,-385.14"/>
<polygon fill="black" stroke="black" stroke-width="2" points="310.12,-384.1 308.45,-394.57 316.28,-387.43 310.12,-384.1"/>
<text text-anchor="start" x="355.79" y="-211.93" font-family="Times,serif" font-size="16.00"> </text>
<text text-anchor="start" x="359.54" y="-211.93" font-family="Times,serif" font-style="italic" font-size="16.00">isSenseOf</text>
<text text-anchor="start" x="421.79" y="-211.93" font-family="Times,serif" font-size="16.00"> </text>
</g>
<!-- LexicalSense&#45;&gt;LexicalConcept -->
<g id="edge4" class="edge">
<title>LexicalSense&#45;&gt;LexicalConcept</title>
<path fill="none" stroke="black" stroke-width="2" stroke-dasharray="5,2" d="M196.63,-36.87C178.14,-53.21 152.97,-79.19 141.04,-108 130.88,-132.53 129.74,-162.89 130.75,-185.13"/>
<polygon fill="black" stroke="black" stroke-width="2" points="127.44,-185.05 131.6,-194.8 134.42,-184.59 127.44,-185.05"/>
<text text-anchor="start" x="141.79" y="-112.55" font-family="Times,serif" font-size="16.00"> </text>
<text text-anchor="start" x="145.54" y="-112.55" font-family="Times,serif" font-style="italic" font-size="16.00">isLexicalizedSenseOf</text>
<text text-anchor="start" x="279.79" y="-112.55" font-family="Times,serif" font-size="16.00"> </text>
</g>
<!-- &quot;lemma@da&quot; -->
<g id="node5" class="node">
<title>&quot;lemma@da&quot;</title>
<text text-anchor="middle" x="520.79" y="-10.25" font-family="Times,serif" font-size="20.00">&quot;lemma@da&quot;</text>
</g>
<!-- LexicalForm&#45;&gt;&quot;lemma@da&quot; -->
<g id="edge8" class="edge">
<title>LexicalForm&#45;&gt;&quot;lemma@da&quot;</title>
<path fill="none" stroke="black" stroke-width="2" stroke-dasharray="5,2" d="M520.79,-197.94C520.79,-164.11 520.79,-90.21 520.79,-48.74"/>
<polygon fill="black" stroke="black" stroke-width="2" points="524.29,-48.79 520.79,-38.79 517.29,-48.79 524.29,-48.79"/>
<text text-anchor="start" x="520.79" y="-112.55" font-family="Times,serif" font-size="16.00"> </text>
<text text-anchor="start" x="524.54" y="-112.55" font-family="Times,serif" font-style="italic" font-size="16.00">writtenRep</text>
<text text-anchor="start" x="594.29" y="-112.55" font-family="Times,serif" font-size="16.00"> </text>
</g>
</g>
</svg>
